<?xml version="1.0" encoding="UTF-8"?>
<svg xmlns="http://www.w3.org/2000/svg" xmlns:xlink="http://www.w3.org/1999/xlink" width="32px" height="32px" viewBox="0 0 32 32" version="1.1">
<defs>
<linearGradient id="linear0" gradientUnits="userSpaceOnUse" x1="-2901.952" y1="923.573" x2="-2061.249" y2="1420.331" gradientTransform="matrix(0.00151983,0,0,-0.00188005,18.585347,21.403745)">
<stop offset="0" style="stop-color:rgb(56.470588%,61.176471%,66.27451%);stop-opacity:1;"/>
<stop offset="1" style="stop-color:rgb(92.941176%,92.941176%,93.333333%);stop-opacity:1;"/>
</linearGradient>
<linearGradient id="linear1" gradientUnits="userSpaceOnUse" x1="-2882.7" y1="10288.81" x2="-2206.249" y2="10288.81" gradientTransform="matrix(0.00151983,0,0,-0.00188005,18.585347,21.403745)">
<stop offset="0" style="stop-color:rgb(57.647059%,62.352941%,67.058824%);stop-opacity:1;"/>
<stop offset="1" style="stop-color:rgb(86.27451%,87.058824%,88.235294%);stop-opacity:1;"/>
</linearGradient>
<radialGradient id="radial0" gradientUnits="userSpaceOnUse" cx="-14217.448" cy="7277.705" fx="-14217.448" fy="7277.705" r="898.12" gradientTransform="matrix(-0.00145948,-0.00027119,-0.000443387,0.00361079,1.868616,-22.240937)">
<stop offset="0" style="stop-color:rgb(93.333333%,20.784314%,17.254902%);stop-opacity:1;"/>
<stop offset="1" style="stop-color:rgb(66.27451%,11.372549%,13.333333%);stop-opacity:1;"/>
</radialGradient>
</defs>
<g id="surface1">
<path style=" stroke:none;fill-rule:nonzero;fill:url(#linear0);" d="M 21.695312 10.1875 L 18.160156 11.617188 L 15.085938 13.296875 L 14.226562 13.574219 C 14.007812 13.832031 13.777344 14.09375 13.53125 14.359375 C 13.257812 14.648438 13.003906 14.914062 12.808594 15.105469 C 12.59375 15.316406 12.273438 15.714844 12.109375 15.964844 C 11.867188 16.339844 11.671875 16.742188 11.589844 17.046875 C 11.445312 17.601562 11.515625 18.164062 11.800781 18.683594 C 12.164062 19.34375 12.886719 20.019531 13.730469 20.476562 C 14.160156 20.710938 14.882812 21.011719 15.429688 21.179688 C 16.335938 21.464844 18.085938 21.773438 19.050781 21.820312 C 19.246094 21.828125 19.507812 21.828125 19.519531 21.820312 C 19.539062 21.800781 19.6875 21.449219 19.863281 21.007812 C 20.457031 19.511719 20.882812 18.109375 21.113281 16.910156 C 21.253906 16.183594 21.363281 15.214844 21.433594 14.066406 C 21.453125 13.746094 21.460938 12.675781 21.445312 12.308594 C 21.421875 11.714844 21.378906 11.234375 21.3125 10.761719 C 21.300781 10.691406 21.300781 10.628906 21.304688 10.625 C 21.316406 10.617188 21.347656 10.601562 21.78125 10.445312 Z M 20.886719 10.773438 C 20.921875 10.773438 21.003906 11.789062 21.027344 12.429688 C 21.03125 12.566406 21.03125 12.652344 21.023438 12.652344 C 21.003906 12.652344 20.574219 12.339844 20.265625 12.101562 C 20 11.894531 19.492188 11.476562 19.410156 11.398438 C 19.382812 11.375 19.386719 11.371094 19.605469 11.28125 C 19.976562 11.125 20.859375 10.773438 20.886719 10.773438 Z M 19.085938 11.507812 C 19.113281 11.507812 19.171875 11.550781 19.320312 11.664062 C 19.871094 12.089844 20.617188 12.605469 20.9375 12.777344 C 21.039062 12.828125 21.046875 12.808594 20.820312 13 C 20.335938 13.410156 19.730469 13.8125 18.984375 14.21875 C 18.855469 14.292969 18.746094 14.347656 18.742188 14.347656 C 18.738281 14.347656 18.753906 14.265625 18.773438 14.167969 C 18.953125 13.34375 19.054688 12.511719 19.0625 11.84375 C 19.0625 11.515625 19.0625 11.515625 19.085938 11.503906 C 19.082031 11.507812 19.085938 11.507812 19.085938 11.507812 Z M 18.714844 11.683594 C 18.734375 11.703125 18.722656 12.441406 18.699219 12.644531 C 18.652344 13.125 18.578125 13.574219 18.453125 14.082031 C 18.425781 14.203125 18.398438 14.304688 18.394531 14.3125 C 18.382812 14.328125 18.015625 13.886719 17.898438 13.714844 C 17.6875 13.417969 17.523438 13.121094 17.40625 12.828125 C 17.34375 12.679688 17.246094 12.390625 17.253906 12.378906 C 17.296875 12.34375 18.707031 11.667969 18.714844 11.683594 Z M 16.96875 12.53125 C 16.972656 12.53125 16.976562 12.53125 16.976562 12.535156 C 16.984375 12.542969 17 12.59375 17.019531 12.652344 C 17.101562 12.941406 17.296875 13.363281 17.460938 13.636719 C 17.644531 13.933594 17.878906 14.25 18.078125 14.457031 C 18.140625 14.523438 18.199219 14.585938 18.210938 14.597656 C 18.226562 14.617188 18.230469 14.613281 17.796875 14.816406 C 17.289062 15.054688 16.738281 15.292969 16.109375 15.542969 C 15.960938 15.605469 15.808594 15.664062 15.660156 15.726562 C 15.632812 15.738281 15.640625 15.71875 15.710938 15.585938 C 16.023438 14.980469 16.5 13.792969 16.765625 12.953125 C 16.8125 12.808594 16.859375 12.664062 16.867188 12.632812 C 16.875 12.585938 16.890625 12.566406 16.925781 12.546875 C 16.941406 12.539062 16.960938 12.53125 16.96875 12.53125 Z M 16.4375 12.804688 C 16.445312 12.8125 16.308594 13.167969 16.175781 13.488281 C 15.914062 14.113281 15.632812 14.730469 15.253906 15.476562 C 15.1875 15.605469 15.125 15.722656 15.117188 15.738281 C 15.105469 15.757812 15.101562 15.753906 15.058594 15.652344 C 14.964844 15.429688 14.890625 15.144531 14.851562 14.882812 C 14.8125 14.625 14.820312 14.175781 14.863281 13.898438 C 14.898438 13.695312 14.898438 13.699219 14.976562 13.648438 C 15.320312 13.433594 16.425781 12.792969 16.4375 12.804688 Z M 21.042969 13.039062 L 21.042969 13.175781 C 21.042969 13.914062 20.980469 14.921875 20.886719 15.660156 C 20.871094 15.789062 20.855469 15.894531 20.851562 15.898438 C 20.851562 15.898438 20.777344 15.871094 20.683594 15.839844 C 20.285156 15.683594 19.847656 15.457031 19.457031 15.1875 C 19.195312 15.011719 18.820312 14.726562 18.832031 14.710938 C 18.832031 14.710938 18.945312 14.636719 19.078125 14.550781 C 19.601562 14.214844 20.101562 13.851562 20.539062 13.488281 C 20.699219 13.355469 20.945312 13.136719 21 13.078125 Z M 14.417969 14.015625 C 14.429688 14.015625 14.425781 14.042969 14.410156 14.160156 C 14.398438 14.246094 14.386719 14.40625 14.382812 14.515625 C 14.359375 14.996094 14.425781 15.351562 14.617188 15.84375 C 14.671875 15.976562 14.714844 16.089844 14.710938 16.09375 C 14.691406 16.113281 12.921875 16.753906 12.367188 16.941406 C 12.203125 17 12.058594 17.046875 12.046875 17.050781 C 12.027344 17.058594 12.027344 17.054688 12.035156 17 C 12.09375 16.511719 12.394531 15.878906 12.8125 15.34375 C 13.089844 14.988281 13.3125 14.777344 13.691406 14.511719 C 13.960938 14.320312 14.382812 14.03125 14.414062 14.019531 C 14.414062 14.015625 14.417969 14.015625 14.417969 14.015625 Z M 18.585938 14.9375 C 18.589844 14.933594 18.652344 14.976562 18.730469 15.03125 C 19.300781 15.441406 20.097656 15.824219 20.777344 16.015625 L 20.835938 16.035156 L 20.75 16.09375 C 20.394531 16.335938 19.230469 16.9375 18.035156 17.492188 C 17.863281 17.570312 17.691406 17.648438 17.660156 17.664062 C 17.625 17.683594 17.597656 17.691406 17.597656 17.6875 C 17.597656 17.6875 17.644531 17.570312 17.707031 17.429688 C 18.039062 16.65625 18.378906 15.714844 18.546875 15.058594 C 18.570312 14.996094 18.582031 14.941406 18.585938 14.9375 Z M 18.160156 15.109375 C 18.164062 15.113281 18.140625 15.179688 18.117188 15.261719 C 17.882812 15.957031 17.578125 16.71875 17.1875 17.570312 C 17.089844 17.789062 17.007812 17.964844 17.003906 17.964844 C 17 17.964844 16.921875 17.902344 16.824219 17.832031 C 16.257812 17.402344 15.757812 16.875 15.429688 16.359375 L 15.378906 16.289062 L 15.625 16.207031 C 16.496094 15.910156 17.234375 15.59375 17.96875 15.203125 C 18.074219 15.152344 18.160156 15.109375 18.160156 15.109375 Z M 20.800781 16.25 C 20.800781 16.324219 20.667969 17.003906 20.554688 17.496094 C 20.460938 17.910156 20.378906 18.234375 20.234375 18.804688 C 20.167969 19.058594 20.113281 19.265625 20.109375 19.265625 C 20.109375 19.265625 20.09375 19.261719 20.074219 19.253906 C 19.28125 19.078125 18.574219 18.828125 17.90625 18.5 C 17.71875 18.40625 17.449219 18.257812 17.433594 18.242188 C 17.429688 18.234375 17.589844 18.140625 17.792969 18.03125 C 19.007812 17.375 20.269531 16.628906 20.699219 16.308594 C 20.75 16.269531 20.792969 16.25 20.800781 16.25 Z M 14.707031 16.507812 C 14.714844 16.511719 14.375 17.117188 13.898438 17.941406 C 13.734375 18.226562 13.539062 18.566406 13.46875 18.691406 C 13.394531 18.816406 13.285156 19.015625 13.226562 19.132812 L 13.113281 19.347656 L 12.992188 19.222656 C 12.851562 19.078125 12.605469 18.765625 12.496094 18.59375 C 12.265625 18.242188 12.113281 17.867188 12.050781 17.527344 C 12.019531 17.367188 12.019531 17.289062 12.046875 17.28125 C 12.085938 17.265625 12.800781 17.058594 13.46875 16.867188 C 13.839844 16.761719 14.269531 16.636719 14.425781 16.589844 C 14.578125 16.542969 14.703125 16.507812 14.707031 16.507812 Z M 15.050781 16.667969 L 15.136719 16.789062 C 15.519531 17.320312 15.910156 17.710938 16.386719 18.054688 C 16.472656 18.117188 16.535156 18.167969 16.53125 18.171875 C 16.511719 18.1875 14.882812 18.90625 14.125 19.230469 C 13.699219 19.414062 13.351562 19.5625 13.347656 19.5625 C 13.34375 19.5625 13.320312 19.542969 13.292969 19.519531 L 13.246094 19.476562 L 13.324219 19.335938 C 13.574219 18.886719 13.890625 18.394531 14.578125 17.371094 Z M 17.179688 18.554688 C 17.183594 18.550781 17.300781 18.605469 17.445312 18.671875 C 17.792969 18.832031 18.066406 18.933594 18.4375 19.050781 C 18.890625 19.191406 19.546875 19.332031 19.933594 19.371094 C 19.992188 19.378906 20.023438 19.382812 20.015625 19.394531 C 19.996094 19.40625 19.601562 19.570312 19.316406 19.679688 C 18.855469 19.859375 17.453125 20.371094 16.308594 20.777344 C 16.097656 20.855469 15.917969 20.917969 15.90625 20.921875 C 15.878906 20.925781 15.792969 20.898438 15.792969 20.882812 C 15.792969 20.878906 15.855469 20.773438 15.933594 20.664062 C 16.316406 20.09375 16.699219 19.460938 17.019531 18.859375 C 17.105469 18.695312 17.179688 18.558594 17.179688 18.554688 Z M 16.710938 18.570312 C 16.714844 18.574219 16.523438 18.953125 16.191406 19.597656 C 16.050781 19.871094 15.894531 20.183594 15.835938 20.292969 C 15.785156 20.398438 15.703125 20.5625 15.660156 20.65625 L 15.582031 20.824219 L 15.539062 20.8125 C 15.445312 20.777344 14.769531 20.484375 14.589844 20.394531 C 14.367188 20.285156 14.136719 20.152344 13.96875 20.042969 C 13.753906 19.898438 13.488281 19.6875 13.507812 19.679688 C 13.511719 19.679688 13.878906 19.554688 14.320312 19.40625 C 15.488281 19.015625 16.140625 18.785156 16.5625 18.621094 C 16.640625 18.589844 16.707031 18.566406 16.710938 18.570312 Z M 20.035156 19.535156 L 20.039062 19.535156 C 20.050781 19.570312 19.617188 21.054688 19.457031 21.523438 C 19.425781 21.628906 19.410156 21.65625 19.390625 21.652344 C 19.347656 21.652344 18.71875 21.542969 18.335938 21.472656 C 17.671875 21.347656 16.554688 21.105469 16.273438 21.027344 L 16.210938 21.007812 L 16.609375 20.898438 C 17.464844 20.660156 17.875 20.53125 18.292969 20.371094 C 18.816406 20.171875 19.339844 19.925781 19.863281 19.621094 C 19.949219 19.574219 20.015625 19.539062 20.035156 19.535156 Z M 20.035156 19.535156 "/>
<path style=" stroke:none;fill-rule:nonzero;fill:url(#linear1);" d="M 18.050781 0 C 17.992188 -0.0078125 17.042969 0.414062 16.433594 0.71875 C 15.609375 1.136719 14.964844 1.535156 14.570312 1.875 C 14.425781 2.003906 14.238281 2.234375 14.210938 2.324219 C 14.199219 2.355469 14.195312 2.394531 14.195312 2.433594 L 14.550781 2.855469 L 15.40625 3.191406 L 17.433594 3.640625 L 19.75 4.132812 L 19.773438 3.886719 C 19.765625 3.886719 19.761719 3.882812 19.753906 3.882812 L 19.449219 3.824219 L 19.386719 3.6875 C 19.070312 3 18.722656 2.148438 18.523438 1.574219 C 18.363281 1.125 18.214844 0.613281 18.132812 0.242188 C 18.085938 0.015625 18.082031 0.00390625 18.050781 0 Z M 18.007812 0.167969 L 18.011719 0.167969 C 18.015625 0.171875 18.023438 0.265625 18.035156 0.375 C 18.082031 0.835938 18.164062 1.28125 18.292969 1.765625 C 18.394531 2.128906 18.394531 2.109375 18.277344 2.066406 C 18.007812 1.972656 16.785156 1.710938 15.902344 1.558594 C 15.761719 1.535156 15.640625 1.511719 15.640625 1.511719 C 15.628906 1.496094 16.277344 1.078125 16.5625 0.910156 C 16.929688 0.703125 17.933594 0.183594 18.007812 0.167969 Z M 15.433594 1.648438 L 15.539062 1.691406 C 16.105469 1.929688 17.527344 2.265625 18.3125 2.347656 C 18.402344 2.355469 18.476562 2.367188 18.480469 2.367188 C 18.480469 2.367188 18.40625 2.417969 18.308594 2.476562 C 17.929688 2.710938 17.515625 2.996094 17.226562 3.21875 C 17.140625 3.285156 17.0625 3.335938 17.050781 3.335938 C 17.042969 3.335938 16.984375 3.324219 16.925781 3.3125 L 16.820312 3.292969 L 16.554688 2.96875 C 16.082031 2.40625 15.714844 1.96875 15.574219 1.804688 Z M 15.328125 1.75 L 15.703125 2.332031 C 15.910156 2.652344 16.117188 2.96875 16.164062 3.035156 C 16.207031 3.105469 16.246094 3.160156 16.242188 3.164062 C 16.234375 3.175781 15.699219 3.046875 15.414062 2.96875 C 15.125 2.882812 15.003906 2.84375 14.824219 2.777344 L 14.679688 2.714844 L 14.679688 2.667969 C 14.679688 2.449219 14.90625 2.117188 15.292969 1.78125 Z M 18.527344 2.542969 C 18.539062 2.542969 18.550781 2.574219 18.582031 2.664062 C 18.671875 2.910156 18.957031 3.578125 19.027344 3.707031 C 19.046875 3.75 19.085938 3.753906 18.707031 3.675781 C 17.804688 3.496094 17.511719 3.4375 17.511719 3.429688 C 17.511719 3.425781 17.539062 3.402344 17.574219 3.378906 C 17.855469 3.1875 18.136719 2.945312 18.386719 2.683594 C 18.449219 2.621094 18.503906 2.5625 18.515625 2.550781 C 18.519531 2.542969 18.523438 2.539062 18.527344 2.542969 Z M 18.527344 2.542969 "/>
<path style=" stroke:none;fill-rule:nonzero;fill:url(#radial0);" d="M 14.230469 2.277344 C 14.230469 2.277344 14.171875 2.390625 14.226562 2.5625 C 14.261719 2.667969 14.363281 2.796875 14.476562 2.929688 C 14.476562 2.929688 15.667969 4.363281 15.8125 4.570312 C 16.46875 5.507812 16.753906 6.433594 16.78125 7.707031 C 16.796875 8.527344 16.671875 9.246094 16.359375 10.082031 C 15.800781 11.582031 14.628906 13.238281 12.820312 15.074219 L 13.085938 14.964844 C 13.257812 14.808594 13.488281 14.640625 14.035156 14.269531 C 15.292969 13.417969 16.707031 12.632812 18.445312 11.828125 C 20.945312 10.664062 25.054688 9.304688 27.394531 8.859375 L 27.636719 8.816406 L 27.601562 8.742188 C 27.386719 8.332031 27.238281 8.078125 27.0625 7.808594 C 26.550781 7.019531 25.929688 6.382812 25.167969 5.855469 C 24.121094 5.132812 22.765625 4.566406 21.050781 4.148438 C 20.726562 4.066406 20.015625 3.914062 19.441406 3.804688 C 18.21875 3.570312 17.425781 3.410156 16.554688 3.226562 C 16.242188 3.160156 15.777344 3.058594 15.464844 2.976562 C 15.304688 2.933594 15 2.84375 14.757812 2.742188 C 14.566406 2.648438 14.289062 2.558594 14.230469 2.277344 Z M 14.917969 3.101562 C 14.921875 3.097656 14.964844 3.117188 15.019531 3.140625 C 15.121094 3.183594 15.253906 3.234375 15.40625 3.289062 C 15.523438 3.328125 15.640625 3.367188 15.761719 3.402344 C 15.921875 3.453125 16.054688 3.5 16.054688 3.5 C 16.074219 3.523438 16.34375 4.589844 16.4375 5 C 16.46875 5.152344 16.496094 5.285156 16.496094 5.285156 C 16.492188 5.289062 16.460938 5.234375 16.425781 5.15625 C 16.113281 4.476562 15.621094 3.785156 15.050781 3.230469 C 14.976562 3.164062 14.917969 3.105469 14.917969 3.101562 Z M 16.234375 3.550781 C 16.246094 3.550781 16.304688 3.5625 16.375 3.582031 C 16.832031 3.707031 17.644531 3.898438 18.167969 4.007812 C 18.253906 4.023438 18.324219 4.042969 18.324219 4.050781 C 18.324219 4.058594 18.292969 4.082031 18.25 4.105469 C 18.164062 4.164062 17.808594 4.425781 17.691406 4.523438 C 17.394531 4.769531 17.128906 5.03125 16.933594 5.269531 C 16.859375 5.367188 16.789062 5.445312 16.789062 5.445312 C 16.789062 5.445312 16.773438 5.390625 16.761719 5.320312 C 16.664062 4.859375 16.464844 4.179688 16.285156 3.699219 C 16.253906 3.625 16.230469 3.554688 16.230469 3.546875 C 16.230469 3.554688 16.230469 3.550781 16.234375 3.550781 Z M 18.546875 4.097656 C 18.5625 4.105469 18.589844 4.214844 18.640625 4.464844 C 18.742188 4.941406 18.785156 5.476562 18.769531 5.976562 C 18.765625 6.117188 18.757812 6.246094 18.753906 6.261719 L 18.746094 6.292969 L 18.605469 6.238281 C 18.320312 6.125 17.855469 5.957031 17.457031 5.816406 C 17.230469 5.742188 17.046875 5.671875 17.046875 5.667969 C 17.046875 5.644531 17.378906 5.238281 17.519531 5.082031 C 17.789062 4.789062 18.523438 4.085938 18.546875 4.097656 Z M 18.730469 4.128906 C 18.738281 4.121094 19.835938 4.355469 20.335938 4.472656 C 20.707031 4.5625 21.246094 4.703125 21.277344 4.71875 C 21.292969 4.726562 21.238281 4.765625 21.058594 4.863281 C 20.355469 5.257812 19.832031 5.609375 19.308594 6.039062 C 19.171875 6.152344 19.058594 6.246094 19.054688 6.246094 C 19.054688 6.246094 19.050781 6.148438 19.050781 6.03125 C 19.050781 5.40625 18.949219 4.769531 18.761719 4.234375 C 18.742188 4.183594 18.726562 4.132812 18.730469 4.128906 Z M 21.570312 4.824219 C 21.578125 4.832031 21.542969 5.101562 21.511719 5.261719 C 21.414062 5.753906 21.15625 6.484375 20.835938 7.167969 C 20.78125 7.292969 20.730469 7.390625 20.726562 7.394531 C 20.71875 7.398438 20.648438 7.347656 20.566406 7.289062 C 20.253906 7.0625 19.902344 6.851562 19.519531 6.652344 C 19.410156 6.597656 19.316406 6.550781 19.316406 6.546875 C 19.296875 6.523438 20.15625 5.820312 20.609375 5.484375 C 20.96875 5.214844 21.558594 4.8125 21.570312 4.824219 Z M 21.773438 4.863281 C 21.796875 4.863281 22.28125 5.027344 22.535156 5.121094 C 23.164062 5.351562 23.882812 5.679688 24.355469 5.945312 L 24.550781 6.054688 L 24.414062 6.09375 C 23.265625 6.417969 22.28125 6.796875 21.332031 7.273438 C 21.257812 7.3125 21.1875 7.34375 21.183594 7.34375 C 21.175781 7.34375 21.203125 7.269531 21.238281 7.175781 C 21.523438 6.425781 21.707031 5.644531 21.753906 4.976562 C 21.757812 4.914062 21.765625 4.863281 21.773438 4.863281 Z M 16.933594 6.238281 C 16.941406 6.226562 17.3125 6.335938 17.511719 6.40625 C 17.816406 6.511719 18.460938 6.78125 18.460938 6.800781 C 18.460938 6.804688 18.390625 6.878906 18.304688 6.972656 C 17.957031 7.332031 17.617188 7.710938 17.214844 8.195312 C 17.09375 8.335938 16.992188 8.453125 16.988281 8.453125 C 16.984375 8.453125 16.980469 8.429688 16.984375 8.40625 C 17.042969 7.851562 17.03125 7.136719 16.945312 6.414062 C 16.9375 6.320312 16.929688 6.242188 16.933594 6.238281 Z M 24.734375 6.246094 C 24.738281 6.253906 24.5625 6.597656 24.449219 6.792969 C 24.289062 7.078125 24.054688 7.453125 23.523438 8.28125 C 23.242188 8.714844 22.929688 9.207031 22.824219 9.375 C 22.71875 9.539062 22.628906 9.675781 22.625 9.675781 C 22.625 9.675781 22.589844 9.617188 22.550781 9.546875 C 22.253906 8.988281 21.894531 8.503906 21.46875 8.066406 C 21.390625 7.984375 21.300781 7.894531 21.273438 7.871094 C 21.242188 7.84375 21.21875 7.816406 21.21875 7.8125 C 21.21875 7.804688 21.671875 7.5625 22.019531 7.390625 C 22.621094 7.085938 23.445312 6.722656 24.0625 6.488281 C 24.382812 6.363281 24.730469 6.242188 24.734375 6.246094 Z M 24.941406 6.3125 C 24.949219 6.3125 25.015625 6.351562 25.09375 6.40625 C 25.742188 6.867188 26.375 7.457031 26.878906 8.066406 C 27.019531 8.238281 27.371094 8.6875 27.363281 8.6875 C 27.363281 8.6875 27.242188 8.703125 27.097656 8.714844 C 25.972656 8.820312 24.535156 9.117188 23.148438 9.527344 C 23.054688 9.554688 22.972656 9.578125 22.96875 9.578125 C 22.964844 9.578125 23.066406 9.449219 23.199219 9.292969 C 24.011719 8.324219 24.382812 7.714844 24.820312 6.625 C 24.878906 6.460938 24.933594 6.324219 24.941406 6.3125 C 24.9375 6.3125 24.9375 6.3125 24.941406 6.3125 Z M 18.992188 7.066406 C 19.027344 7.078125 19.375 7.277344 19.636719 7.441406 C 19.878906 7.589844 20.238281 7.828125 20.257812 7.847656 C 20.261719 7.851562 20.132812 7.933594 19.972656 8.027344 C 19.472656 8.339844 19.042969 8.632812 18.59375 8.96875 C 18.464844 9.066406 18.359375 9.144531 18.355469 9.144531 C 18.34375 9.144531 18.347656 9.132812 18.421875 8.96875 C 18.660156 8.429688 18.851562 7.78125 18.960938 7.148438 C 18.972656 7.101562 18.984375 7.066406 18.992188 7.066406 Z M 18.644531 7.144531 C 18.652344 7.15625 18.5625 7.5625 18.503906 7.785156 C 18.394531 8.203125 18.210938 8.730469 18.03125 9.125 C 17.988281 9.21875 17.925781 9.351562 17.890625 9.429688 L 17.824219 9.5625 L 17.675781 9.382812 C 17.5 9.175781 17.359375 9.046875 17.179688 8.929688 C 17.105469 8.882812 17.050781 8.84375 17.050781 8.839844 C 17.050781 8.8125 17.507812 8.300781 17.855469 7.929688 C 18.109375 7.660156 18.636719 7.136719 18.644531 7.144531 Z M 20.769531 8.226562 L 20.898438 8.332031 C 21.199219 8.574219 21.550781 8.894531 21.820312 9.175781 C 21.972656 9.332031 22.265625 9.65625 22.324219 9.738281 L 22.355469 9.78125 L 22.140625 9.855469 C 20.917969 10.273438 19.972656 10.648438 18.867188 11.152344 C 18.746094 11.207031 18.640625 11.253906 18.632812 11.253906 C 18.617188 11.253906 18.605469 11.269531 18.878906 10.957031 C 19.585938 10.152344 20.210938 9.265625 20.675781 8.40625 Z M 20.210938 8.398438 C 20.214844 8.40625 19.847656 9.042969 19.628906 9.402344 C 19.367188 9.832031 18.902344 10.550781 18.582031 11.023438 C 18.449219 11.21875 18.335938 11.378906 18.328125 11.382812 C 18.320312 11.386719 18.320312 11.335938 18.320312 11.257812 C 18.320312 10.859375 18.234375 10.433594 18.089844 10.070312 C 18.03125 9.917969 18.019531 9.882812 18.03125 9.867188 C 18.082031 9.808594 18.859375 9.261719 19.351562 8.933594 C 19.683594 8.714844 20.203125 8.390625 20.210938 8.398438 Z M 16.832031 9.421875 C 16.839844 9.421875 16.902344 9.460938 16.972656 9.507812 C 17.144531 9.625 17.296875 9.753906 17.433594 9.890625 C 17.4375 9.898438 17.367188 9.96875 17.277344 10.050781 C 17.023438 10.273438 16.636719 10.636719 16.414062 10.855469 C 16.179688 11.089844 16.171875 11.09375 16.199219 11.046875 C 16.375 10.710938 16.460938 10.523438 16.554688 10.28125 C 16.636719 10.066406 16.722656 9.8125 16.78125 9.589844 C 16.800781 9.496094 16.828125 9.421875 16.832031 9.421875 Z M 17.734375 10.296875 C 17.746094 10.292969 17.761719 10.320312 17.835938 10.453125 C 17.988281 10.734375 18.105469 11.109375 18.132812 11.414062 L 18.140625 11.480469 L 17.773438 11.65625 C 17.121094 11.96875 16.515625 12.28125 16.105469 12.511719 C 15.992188 12.578125 15.792969 12.695312 15.660156 12.777344 C 15.53125 12.859375 15.421875 12.921875 15.421875 12.917969 C 15.421875 12.914062 15.507812 12.839844 15.609375 12.746094 C 16.40625 12.03125 17.097656 11.242188 17.617188 10.457031 C 17.671875 10.375 17.722656 10.296875 17.726562 10.296875 Z M 17.320312 10.421875 C 17.332031 10.433594 17.027344 10.859375 16.816406 11.121094 C 16.300781 11.773438 15.792969 12.28125 15.160156 12.777344 C 15.078125 12.839844 15.007812 12.894531 15 12.902344 C 14.980469 12.914062 15.003906 12.882812 15.28125 12.507812 C 15.457031 12.273438 15.589844 12.074219 15.742188 11.832031 C 15.84375 11.667969 15.863281 11.644531 16.011719 11.515625 C 16.402344 11.167969 17.308594 10.40625 17.320312 10.421875 Z M 17.320312 10.421875 "/>
<path style=" stroke:none;fill-rule:nonzero;fill:rgb(13.72549%,12.156863%,12.156863%);fill-opacity:1;" d="M 5.753906 24.101562 C 5.703125 24.101562 5.65625 24.105469 5.605469 24.105469 C 4.613281 24.171875 3.941406 24.714844 3.546875 25.773438 C 3.210938 26.730469 3.25 27.980469 3.550781 28.941406 C 3.902344 29.882812 4.472656 30.378906 5.421875 30.566406 C 5.625 30.609375 5.757812 30.742188 6.148438 31.304688 L 6.625 32 L 7.492188 32 L 6.917969 31.28125 C 6.597656 30.886719 6.339844 30.542969 6.339844 30.511719 C 6.339844 30.480469 6.460938 30.414062 6.609375 30.359375 C 7.097656 30.175781 7.5 29.710938 7.785156 28.996094 C 8.011719 28.425781 8.046875 28.246094 8.078125 27.535156 C 8.164062 25.410156 7.261719 24.085938 5.753906 24.101562 Z M 6.515625 29.652344 C 6.09375 29.902344 5.480469 29.953125 5.078125 29.773438 C 4.664062 29.585938 4.265625 29.050781 4.082031 28.449219 C 3.882812 27.792969 3.910156 26.578125 4.140625 26.03125 C 4.507812 25.160156 4.996094 24.757812 5.707031 24.757812 C 6.765625 24.757812 7.367188 25.558594 7.445312 27.0625 C 7.507812 28.316406 7.167969 29.261719 6.515625 29.648438 Z M 21.515625 25.914062 C 21.152344 25.914062 20.875 26.097656 20.683594 26.457031 L 20.539062 26.738281 L 20.539062 26 L 19.90625 26 L 19.90625 30.4375 L 20.539062 30.4375 L 20.539062 29.019531 C 20.539062 27.722656 20.550781 27.570312 20.695312 27.214844 C 20.898438 26.730469 21.246094 26.484375 21.582031 26.601562 L 21.808594 26.683594 L 21.808594 25.914062 Z M 17.8125 25.871094 C 17.6875 25.871094 17.558594 25.894531 17.429688 25.929688 C 16.585938 26.203125 16.109375 27.199219 16.136719 28.226562 C 16.136719 29.089844 16.273438 29.519531 16.609375 29.96875 C 17.296875 30.667969 17.917969 30.722656 18.757812 30.347656 C 18.902344 30.273438 19.054688 30.1875 19.054688 30.1875 L 19.054688 29.488281 L 18.757812 29.679688 C 18.078125 30.046875 17.566406 30.046875 17.15625 29.617188 C 16.894531 29.285156 16.78125 28.890625 16.726562 28.441406 L 19.269531 28.441406 L 19.269531 27.84375 C 19.269531 26.625 18.675781 25.851562 17.8125 25.871094 Z M 16.785156 27.816406 C 16.785156 27.816406 16.878906 27.058594 17.226562 26.757812 C 17.394531 26.613281 17.585938 26.542969 17.773438 26.542969 C 17.964844 26.542969 18.152344 26.617188 18.308594 26.765625 C 18.625 27.066406 18.679688 27.8125 18.679688 27.8125 L 16.785156 27.8125 Z M 1.585938 27.019531 C 0.902344 26.507812 0.601562 26.136719 0.636719 25.699219 C 0.742188 24.496094 1.945312 24.664062 2.613281 25.117188 L 2.617188 24.308594 C 2.617188 24.308594 2.25 24.109375 1.722656 24.101562 C 0.910156 24.085938 0.386719 24.414062 0.140625 25.082031 C -0.21875 26.070312 0.101562 26.8125 1.253906 27.644531 C 1.902344 28.109375 2.1875 28.515625 2.1875 28.957031 C 2.1875 29.867188 1.300781 30.1875 0.382812 29.613281 C 0.195312 29.5 0.0351562 29.402344 0.0273438 29.402344 C -0.0078125 29.660156 0.0117188 30.277344 0.0117188 30.277344 C 0.0117188 30.277344 0.292969 30.425781 0.714844 30.527344 C 1.761719 30.785156 2.714844 30.175781 2.804688 29.1875 C 2.882812 28.261719 2.613281 27.777344 1.585938 27.015625 Z M 27.09375 25.863281 C 26.972656 25.863281 26.84375 25.882812 26.707031 25.917969 C 25.863281 26.191406 25.390625 27.191406 25.421875 28.21875 C 25.421875 29.078125 25.554688 29.503906 25.890625 29.953125 C 26.578125 30.652344 27.199219 30.710938 28.042969 30.335938 C 28.1875 30.257812 28.34375 30.171875 28.34375 30.171875 L 28.34375 29.472656 L 28.042969 29.667969 C 27.363281 30.03125 26.851562 30.03125 26.445312 29.601562 C 26.179688 29.273438 26.066406 28.882812 26.011719 28.425781 L 28.550781 28.425781 L 28.550781 27.828125 C 28.550781 26.613281 27.957031 25.84375 27.09375 25.863281 Z M 26.066406 27.808594 C 26.066406 27.808594 26.164062 27.046875 26.511719 26.742188 C 26.675781 26.597656 26.871094 26.527344 27.058594 26.527344 C 27.246094 26.527344 27.433594 26.601562 27.589844 26.75 C 27.910156 27.054688 27.964844 27.800781 27.964844 27.800781 L 26.066406 27.800781 Z M 14.511719 27.027344 C 13.828125 26.515625 13.527344 26.148438 13.5625 25.710938 C 13.667969 24.503906 14.875 24.671875 15.539062 25.128906 L 15.542969 24.316406 C 15.542969 24.316406 15.175781 24.121094 14.648438 24.109375 C 13.835938 24.097656 13.3125 24.425781 13.066406 25.09375 C 12.707031 26.082031 13.03125 26.824219 14.179688 27.65625 C 14.828125 28.121094 15.113281 28.519531 15.113281 28.960938 C 15.113281 29.875 14.226562 30.195312 13.308594 29.621094 C 13.121094 29.503906 12.960938 29.40625 12.953125 29.40625 C 12.921875 29.667969 12.9375 30.285156 12.9375 30.285156 C 12.9375 30.285156 13.214844 30.425781 13.636719 30.53125 C 14.683594 30.792969 15.640625 30.183594 15.730469 29.195312 C 15.804688 28.273438 15.535156 27.789062 14.511719 27.027344 Z M 30.800781 25.902344 C 30.433594 25.902344 30.152344 26.085938 29.96875 26.445312 L 29.820312 26.730469 L 29.820312 25.992188 L 29.191406 25.992188 L 29.191406 30.425781 L 29.820312 30.425781 L 29.820312 29.007812 C 29.820312 27.710938 29.832031 27.558594 29.980469 27.203125 C 30.183594 26.71875 30.53125 26.476562 30.863281 26.59375 L 31.089844 26.671875 L 31.089844 25.902344 Z M 9.5 27.003906 L 9.5 24.175781 L 8.863281 24.175781 L 8.863281 30.433594 L 11.535156 30.433594 L 11.535156 29.695312 L 9.5 29.695312 Z M 24.199219 27.882812 L 23.671875 29.570312 L 23.167969 27.875 L 22.660156 25.996094 L 22.007812 25.996094 C 22.429688 27.472656 22.886719 28.976562 23.351562 30.433594 C 23.550781 30.441406 23.75 30.433594 23.953125 30.433594 L 24.660156 28.238281 L 25.378906 25.996094 L 24.757812 25.996094 C 24.757812 25.996094 24.484375 26.886719 24.195312 27.882812 Z M 10.964844 22.472656 C 11.066406 22.472656 11.152344 22.429688 11.222656 22.34375 C 11.292969 22.257812 11.328125 22.15625 11.328125 22.03125 C 11.328125 21.902344 11.292969 21.796875 11.222656 21.714844 C 11.152344 21.636719 11.070312 21.59375 10.96875 21.59375 C 10.867188 21.59375 10.78125 21.636719 10.710938 21.722656 C 10.640625 21.808594 10.609375 21.914062 10.609375 22.035156 C 10.609375 22.164062 10.640625 22.269531 10.710938 22.347656 C 10.777344 22.429688 10.863281 22.46875 10.964844 22.46875 Z M 10.738281 21.75 C 10.800781 21.675781 10.875 21.640625 10.96875 21.640625 C 11.058594 21.640625 11.132812 21.675781 11.195312 21.75 C 11.253906 21.828125 11.289062 21.917969 11.289062 22.03125 C 11.289062 22.140625 11.253906 22.238281 11.195312 22.3125 C 11.132812 22.390625 11.058594 22.425781 10.96875 22.425781 C 10.878906 22.425781 10.804688 22.390625 10.742188 22.3125 C 10.683594 22.238281 10.648438 22.140625 10.648438 22.03125 C 10.648438 21.917969 10.679688 21.828125 10.738281 21.75 Z M 10.890625 22.070312 L 10.933594 22.070312 C 10.960938 22.070312 10.988281 22.105469 11.015625 22.171875 L 11.0625 22.308594 L 11.140625 22.308594 L 11.078125 22.15625 C 11.054688 22.097656 11.03125 22.058594 11 22.050781 C 11.039062 22.039062 11.066406 22.023438 11.085938 21.996094 C 11.109375 21.96875 11.117188 21.933594 11.117188 21.894531 C 11.117188 21.847656 11.105469 21.8125 11.078125 21.785156 C 11.050781 21.757812 11.003906 21.742188 10.949219 21.742188 L 10.816406 21.742188 L 10.816406 22.308594 L 10.882812 22.308594 L 10.882812 22.070312 Z M 10.890625 21.808594 L 10.949219 21.808594 C 10.988281 21.808594 11.019531 21.816406 11.035156 21.832031 C 11.050781 21.847656 11.054688 21.867188 11.054688 21.902344 C 11.054688 21.96875 11.019531 22 10.960938 22 L 10.890625 22 Z M 0.390625 22.019531 C 0.390625 21.824219 0.386719 21.675781 0.382812 21.589844 L 0.386719 21.589844 C 0.402344 21.691406 0.425781 21.769531 0.441406 21.816406 L 1.050781 23.503906 L 1.152344 23.503906 L 1.761719 21.804688 C 1.78125 21.757812 1.796875 21.6875 1.816406 21.589844 L 1.820312 21.589844 C 1.808594 21.757812 1.804688 21.90625 1.804688 22.023438 L 1.804688 23.511719 L 2.011719 23.511719 L 2.011719 21.296875 L 1.75 21.296875 L 1.191406 22.835938 C 1.167969 22.898438 1.140625 22.988281 1.105469 23.109375 L 1.097656 23.109375 C 1.082031 23.050781 1.054688 22.957031 1.015625 22.847656 L 0.464844 21.292969 L 0.1875 21.292969 L 0.1875 23.503906 L 0.390625 23.503906 Z M 2.472656 22.023438 L 2.652344 22.023438 L 2.652344 23.402344 L 2.472656 23.402344 Z M 2.5625 21.519531 C 2.597656 21.519531 2.628906 21.503906 2.65625 21.472656 C 2.679688 21.441406 2.695312 21.402344 2.695312 21.355469 C 2.695312 21.3125 2.683594 21.269531 2.65625 21.242188 C 2.628906 21.210938 2.597656 21.195312 2.5625 21.195312 C 2.523438 21.195312 2.492188 21.210938 2.46875 21.242188 C 2.441406 21.269531 2.425781 21.3125 2.425781 21.355469 C 2.425781 21.40625 2.4375 21.441406 2.46875 21.472656 C 2.496094 21.503906 2.523438 21.519531 2.5625 21.519531 Z M 3.9375 23.433594 L 3.9375 23.191406 C 3.839844 23.28125 3.730469 23.328125 3.621094 23.328125 C 3.492188 23.328125 3.382812 23.269531 3.304688 23.164062 C 3.230469 23.058594 3.1875 22.910156 3.1875 22.726562 C 3.1875 22.535156 3.230469 22.382812 3.3125 22.269531 C 3.394531 22.15625 3.503906 22.101562 3.632812 22.101562 C 3.738281 22.101562 3.84375 22.140625 3.9375 22.222656 L 3.9375 21.964844 C 3.851562 21.910156 3.753906 21.882812 3.640625 21.882812 C 3.4375 21.882812 3.277344 21.964844 3.160156 22.121094 C 3.039062 22.277344 2.980469 22.492188 2.980469 22.75 C 2.980469 22.976562 3.03125 23.167969 3.140625 23.316406 C 3.257812 23.46875 3.40625 23.542969 3.585938 23.542969 C 3.722656 23.539062 3.839844 23.503906 3.9375 23.433594 Z M 4.453125 22.699219 C 4.453125 22.515625 4.484375 22.371094 4.546875 22.269531 C 4.605469 22.175781 4.671875 22.132812 4.753906 22.132812 C 4.824219 22.132812 4.875 22.148438 4.910156 22.183594 L 4.910156 21.917969 C 4.882812 21.902344 4.839844 21.898438 4.789062 21.898438 C 4.714844 21.898438 4.648438 21.929688 4.589844 21.984375 C 4.53125 22.046875 4.480469 22.136719 4.453125 22.253906 L 4.449219 22.253906 L 4.449219 21.929688 L 4.242188 21.929688 L 4.242188 23.507812 L 4.449219 23.507812 L 4.449219 22.699219 Z M 5.628906 23.539062 C 5.820312 23.539062 5.976562 23.464844 6.089844 23.3125 C 6.203125 23.160156 6.261719 22.957031 6.261719 22.703125 C 6.261719 22.445312 6.207031 22.25 6.101562 22.101562 C 5.996094 21.953125 5.847656 21.882812 5.65625 21.882812 C 5.464844 21.882812 5.308594 21.953125 5.195312 22.089844 C 5.070312 22.242188 5.003906 22.457031 5.003906 22.730469 C 5.003906 22.96875 5.058594 23.164062 5.167969 23.3125 C 5.285156 23.464844 5.433594 23.539062 5.628906 23.539062 Z M 5.335938 22.253906 C 5.414062 22.152344 5.515625 22.101562 5.644531 22.101562 C 5.773438 22.101562 5.875 22.152344 5.945312 22.253906 C 6.019531 22.359375 6.058594 22.511719 6.058594 22.714844 C 6.058594 22.90625 6.023438 23.058594 5.953125 23.160156 C 5.886719 23.265625 5.78125 23.320312 5.648438 23.320312 C 5.515625 23.320312 5.414062 23.265625 5.335938 23.160156 C 5.257812 23.054688 5.222656 22.90625 5.222656 22.714844 C 5.214844 22.523438 5.253906 22.367188 5.335938 22.253906 Z M 7.15625 23.402344 C 7.234375 23.316406 7.277344 23.210938 7.277344 23.078125 C 7.277344 22.960938 7.242188 22.867188 7.183594 22.789062 C 7.132812 22.730469 7.054688 22.671875 6.945312 22.617188 C 6.847656 22.566406 6.785156 22.523438 6.753906 22.484375 C 6.71875 22.445312 6.699219 22.394531 6.699219 22.324219 C 6.699219 22.257812 6.71875 22.207031 6.761719 22.167969 C 6.800781 22.125 6.855469 22.105469 6.925781 22.105469 C 7.035156 22.105469 7.128906 22.140625 7.214844 22.21875 L 7.214844 21.964844 C 7.132812 21.914062 7.042969 21.890625 6.941406 21.890625 C 6.808594 21.890625 6.699219 21.933594 6.617188 22.019531 C 6.53125 22.105469 6.492188 22.21875 6.492188 22.351562 C 6.492188 22.464844 6.519531 22.5625 6.570312 22.632812 C 6.617188 22.695312 6.695312 22.753906 6.800781 22.808594 C 6.902344 22.867188 6.972656 22.917969 7.011719 22.957031 C 7.046875 22.996094 7.0625 23.046875 7.0625 23.109375 C 7.0625 23.253906 6.980469 23.332031 6.820312 23.332031 C 6.699219 23.332031 6.589844 23.28125 6.488281 23.179688 L 6.488281 23.453125 C 6.578125 23.519531 6.6875 23.550781 6.804688 23.550781 C 6.957031 23.539062 7.074219 23.496094 7.15625 23.402344 Z M 8.132812 21.882812 C 7.941406 21.882812 7.785156 21.953125 7.667969 22.089844 C 7.546875 22.242188 7.480469 22.457031 7.480469 22.730469 C 7.480469 22.96875 7.535156 23.164062 7.644531 23.3125 C 7.761719 23.464844 7.910156 23.539062 8.105469 23.539062 C 8.300781 23.539062 8.453125 23.460938 8.566406 23.3125 C 8.679688 23.160156 8.738281 22.957031 8.738281 22.703125 C 8.738281 22.445312 8.683594 22.246094 8.578125 22.101562 C 8.46875 21.953125 8.320312 21.882812 8.132812 21.882812 Z M 8.527344 22.714844 C 8.527344 22.90625 8.496094 23.058594 8.425781 23.160156 C 8.355469 23.265625 8.253906 23.320312 8.121094 23.320312 C 7.988281 23.320312 7.886719 23.265625 7.808594 23.160156 C 7.730469 23.054688 7.695312 22.90625 7.695312 22.714844 C 7.695312 22.511719 7.734375 22.355469 7.816406 22.25 C 7.894531 22.148438 7.996094 22.097656 8.125 22.097656 C 8.25 22.097656 8.351562 22.148438 8.425781 22.25 C 8.492188 22.359375 8.527344 22.511719 8.527344 22.714844 Z M 9.082031 23.503906 L 9.285156 23.503906 L 9.285156 22.136719 L 9.585938 22.136719 L 9.585938 21.925781 L 9.285156 21.925781 L 9.285156 21.679688 C 9.285156 21.457031 9.355469 21.347656 9.5 21.347656 C 9.546875 21.347656 9.597656 21.363281 9.632812 21.386719 L 9.632812 21.160156 C 9.597656 21.140625 9.546875 21.132812 9.484375 21.132812 C 9.375 21.132812 9.285156 21.175781 9.210938 21.261719 C 9.125 21.363281 9.082031 21.492188 9.082031 21.671875 L 9.082031 21.929688 L 8.863281 21.929688 L 8.863281 22.140625 L 9.082031 22.140625 Z M 9.921875 23.074219 C 9.921875 23.382812 10.03125 23.539062 10.257812 23.539062 C 10.339844 23.539062 10.398438 23.523438 10.449219 23.488281 L 10.449219 23.269531 C 10.410156 23.304688 10.367188 23.320312 10.316406 23.320312 C 10.246094 23.320312 10.199219 23.300781 10.171875 23.253906 C 10.140625 23.210938 10.125 23.132812 10.125 23.027344 L 10.125 22.136719 L 10.449219 22.136719 L 10.449219 21.921875 L 10.125 21.921875 L 10.125 21.457031 C 10.054688 21.488281 9.984375 21.511719 9.921875 21.539062 L 9.921875 21.921875 L 9.699219 21.921875 L 9.699219 22.136719 L 9.921875 22.136719 Z M 31.886719 25.984375 C 31.820312 25.902344 31.738281 25.863281 31.636719 25.863281 C 31.53125 25.863281 31.445312 25.902344 31.375 25.992188 C 31.308594 26.074219 31.273438 26.183594 31.273438 26.304688 C 31.273438 26.429688 31.308594 26.535156 31.375 26.617188 C 31.445312 26.699219 31.53125 26.738281 31.632812 26.738281 C 31.734375 26.738281 31.820312 26.699219 31.894531 26.613281 C 31.960938 26.527344 32 26.425781 32 26.300781 C 31.996094 26.171875 31.957031 26.066406 31.886719 25.984375 Z M 31.855469 26.582031 C 31.792969 26.65625 31.71875 26.691406 31.628906 26.691406 C 31.542969 26.691406 31.46875 26.65625 31.40625 26.582031 C 31.34375 26.507812 31.3125 26.410156 31.3125 26.296875 C 31.3125 26.1875 31.339844 26.097656 31.402344 26.019531 C 31.460938 25.945312 31.535156 25.910156 31.628906 25.910156 C 31.71875 25.910156 31.792969 25.945312 31.855469 26.019531 C 31.917969 26.097656 31.949219 26.1875 31.949219 26.296875 C 31.949219 26.414062 31.921875 26.507812 31.855469 26.582031 Z M 31.671875 26.324219 C 31.707031 26.3125 31.738281 26.292969 31.757812 26.269531 C 31.777344 26.242188 31.785156 26.207031 31.785156 26.167969 C 31.785156 26.121094 31.773438 26.085938 31.75 26.058594 C 31.722656 26.03125 31.675781 26.015625 31.617188 26.015625 L 31.488281 26.015625 L 31.488281 26.582031 L 31.554688 26.582031 L 31.554688 26.34375 L 31.59375 26.34375 C 31.621094 26.34375 31.648438 26.378906 31.675781 26.445312 L 31.722656 26.582031 L 31.800781 26.582031 L 31.742188 26.429688 C 31.71875 26.363281 31.695312 26.332031 31.671875 26.324219 Z M 31.625 26.273438 L 31.554688 26.273438 L 31.554688 26.082031 L 31.613281 26.082031 C 31.65625 26.082031 31.683594 26.089844 31.699219 26.105469 C 31.714844 26.121094 31.71875 26.140625 31.71875 26.175781 C 31.71875 26.242188 31.6875 26.273438 31.625 26.273438 Z M 20.207031 21.859375 L 20.265625 21.859375 L 20.265625 21.292969 L 20.414062 21.292969 L 20.414062 21.21875 L 20.054688 21.21875 L 20.054688 21.292969 L 20.207031 21.292969 Z M 20.554688 21.433594 C 20.554688 21.378906 20.554688 21.332031 20.550781 21.304688 C 20.554688 21.335938 20.5625 21.355469 20.566406 21.371094 L 20.742188 21.859375 L 20.769531 21.859375 L 20.949219 21.367188 C 20.953125 21.351562 20.957031 21.332031 20.964844 21.304688 C 20.960938 21.355469 20.960938 21.398438 20.960938 21.429688 L 20.960938 21.859375 L 21.019531 21.859375 L 21.019531 21.21875 L 20.949219 21.21875 L 20.789062 21.660156 C 20.785156 21.675781 20.769531 21.707031 20.761719 21.742188 L 20.757812 21.742188 C 20.753906 21.722656 20.746094 21.699219 20.734375 21.667969 L 20.574219 21.21875 L 20.492188 21.21875 L 20.492188 21.859375 L 20.550781 21.859375 L 20.550781 21.433594 Z M 20.554688 21.433594 "/>
</g>
</svg>
