<?xml version="1.0" encoding="UTF-8"?>
<svg xmlns="http://www.w3.org/2000/svg" xmlns:xlink="http://www.w3.org/1999/xlink" width="32px" height="32px" viewBox="0 0 32 32" version="1.1">
<g id="surface1">
<path style=" stroke:none;fill-rule:nonzero;fill:rgb(0%,38.039216%,54.117647%);fill-opacity:1;" d="M 0.5 22.613281 L 1.527344 22.613281 L 1.527344 18.558594 L 3.117188 22.09375 C 3.304688 22.523438 3.5625 22.671875 4.066406 22.671875 C 4.570312 22.671875 4.816406 22.523438 5.003906 22.09375 L 6.59375 18.558594 L 6.59375 22.613281 L 7.621094 22.613281 L 7.621094 18.566406 C 7.621094 18.171875 7.460938 17.980469 7.136719 17.878906 C 6.355469 17.636719 5.832031 17.847656 5.597656 18.375 L 4.035156 21.863281 L 2.523438 18.375 C 2.296875 17.847656 1.765625 17.636719 0.984375 17.878906 C 0.65625 17.980469 0.5 18.171875 0.5 18.566406 Z M 8.476562 19.3125 L 9.5 19.3125 L 9.5 21.546875 C 9.492188 21.667969 9.539062 21.953125 10.101562 21.960938 C 10.390625 21.96875 12.320312 21.960938 12.335938 21.960938 L 12.335938 19.300781 L 13.367188 19.300781 C 13.371094 19.300781 13.363281 22.929688 13.363281 22.945312 C 13.371094 23.839844 12.253906 24.035156 11.738281 24.050781 L 8.496094 24.050781 L 8.496094 23.359375 C 8.503906 23.359375 11.738281 23.359375 11.746094 23.359375 C 12.40625 23.289062 12.328125 22.960938 12.328125 22.851562 L 12.328125 22.582031 L 10.144531 22.582031 C 9.128906 22.570312 8.484375 22.128906 8.476562 21.617188 C 8.472656 21.570312 8.496094 19.335938 8.476562 19.3125 Z M 8.476562 19.3125 "/>
<path style=" stroke:none;fill-rule:nonzero;fill:rgb(89.411765%,55.686275%,0%);fill-opacity:1;" d="M 14.15625 22.613281 L 17.109375 22.613281 C 17.457031 22.613281 17.792969 22.542969 18.058594 22.417969 C 18.503906 22.214844 18.71875 21.9375 18.71875 21.574219 L 18.71875 20.824219 C 18.71875 20.527344 18.472656 20.25 17.988281 20.066406 C 17.734375 19.96875 17.417969 19.914062 17.109375 19.914062 L 15.867188 19.914062 C 15.449219 19.914062 15.253906 19.789062 15.203125 19.515625 C 15.195312 19.480469 15.195312 19.453125 15.195312 19.421875 L 15.195312 18.953125 C 15.195312 18.929688 15.195312 18.902344 15.203125 18.867188 C 15.253906 18.65625 15.363281 18.597656 15.726562 18.566406 L 15.828125 18.558594 L 18.757812 18.558594 L 18.757812 17.875 L 15.875 17.875 C 15.460938 17.875 15.242188 17.902344 15.046875 17.960938 C 14.433594 18.152344 14.167969 18.453125 14.167969 18.980469 L 14.167969 19.578125 C 14.167969 20.039062 14.691406 20.4375 15.570312 20.527344 C 15.667969 20.535156 15.765625 20.542969 15.867188 20.542969 L 16.933594 20.542969 C 16.972656 20.542969 17.011719 20.542969 17.042969 20.546875 C 17.367188 20.574219 17.503906 20.632812 17.605469 20.75 C 17.664062 20.8125 17.683594 20.871094 17.683594 20.9375 L 17.683594 21.535156 C 17.683594 21.605469 17.632812 21.699219 17.535156 21.777344 C 17.445312 21.859375 17.296875 21.910156 17.101562 21.921875 L 16.992188 21.929688 L 14.15625 21.929688 Z M 25.128906 21.421875 C 25.128906 22.128906 25.652344 22.523438 26.707031 22.601562 C 26.804688 22.609375 26.90625 22.613281 27.003906 22.613281 L 29.679688 22.613281 L 29.679688 21.929688 L 26.984375 21.929688 C 26.382812 21.929688 26.15625 21.777344 26.15625 21.417969 L 26.15625 17.875 L 25.128906 17.875 Z M 19.375 21.457031 L 19.375 19.015625 C 19.375 18.398438 19.8125 18.019531 20.671875 17.902344 C 20.761719 17.890625 20.859375 17.882812 20.949219 17.882812 L 22.898438 17.882812 C 22.996094 17.882812 23.085938 17.890625 23.1875 17.902344 C 24.046875 18.019531 24.484375 18.398438 24.484375 19.015625 L 24.484375 21.457031 C 24.484375 21.960938 24.296875 22.230469 23.871094 22.40625 L 24.882812 23.320312 L 23.691406 23.320312 L 22.871094 22.582031 L 22.046875 22.632812 L 20.949219 22.632812 C 20.761719 22.632812 20.5625 22.605469 20.347656 22.546875 C 19.691406 22.371094 19.375 22.027344 19.375 21.457031 Z M 20.484375 21.398438 C 20.484375 21.433594 20.492188 21.464844 20.503906 21.503906 C 20.5625 21.789062 20.832031 21.945312 21.234375 21.945312 L 22.167969 21.945312 L 21.3125 21.171875 L 22.503906 21.171875 L 23.253906 21.847656 C 23.390625 21.773438 23.480469 21.664062 23.511719 21.519531 C 23.523438 21.484375 23.523438 21.453125 23.523438 21.417969 L 23.523438 19.078125 C 23.523438 19.050781 23.523438 19.019531 23.511719 18.984375 C 23.453125 18.722656 23.1875 18.570312 22.789062 18.570312 L 21.234375 18.570312 C 20.78125 18.570312 20.484375 18.765625 20.484375 19.078125 Z M 20.484375 21.398438 "/>
<path style=" stroke:none;fill-rule:nonzero;fill:rgb(0%,38.039216%,54.117647%);fill-opacity:1;" d="M 30.585938 16.738281 C 29.953125 16.722656 29.46875 16.78125 29.058594 16.953125 C 28.941406 17.003906 28.753906 17.003906 28.734375 17.152344 C 28.800781 17.21875 28.808594 17.320312 28.859375 17.402344 C 28.960938 17.5625 29.125 17.773438 29.273438 17.886719 C 29.433594 18.007812 29.601562 18.140625 29.777344 18.246094 C 30.085938 18.433594 30.429688 18.542969 30.726562 18.730469 C 30.902344 18.84375 31.078125 18.980469 31.25 19.109375 C 31.332031 19.167969 31.390625 19.265625 31.5 19.304688 L 31.5 19.289062 C 31.441406 19.214844 31.425781 19.113281 31.375 19.035156 L 31.140625 18.800781 C 30.914062 18.5 30.621094 18.234375 30.316406 18.011719 C 30.070312 17.835938 29.519531 17.597656 29.417969 17.3125 L 29.398438 17.292969 C 29.574219 17.273438 29.777344 17.210938 29.9375 17.167969 C 30.207031 17.097656 30.449219 17.113281 30.726562 17.042969 L 31.105469 16.933594 L 31.105469 16.863281 C 30.964844 16.71875 30.863281 16.527344 30.710938 16.398438 C 30.308594 16.054688 29.867188 15.710938 29.417969 15.425781 C 29.167969 15.269531 28.855469 15.167969 28.589844 15.03125 C 28.503906 14.988281 28.34375 14.964844 28.285156 14.886719 C 28.144531 14.710938 28.070312 14.484375 27.960938 14.277344 C 27.738281 13.84375 27.515625 13.371094 27.316406 12.914062 C 27.179688 12.601562 27.089844 12.296875 26.921875 12.015625 C 26.105469 10.675781 25.230469 9.867188 23.871094 9.070312 C 23.582031 8.902344 23.230469 8.835938 22.863281 8.75 L 22.273438 8.714844 C 22.152344 8.664062 22.027344 8.515625 21.914062 8.445312 C 21.460938 8.160156 20.308594 7.539062 19.972656 8.355469 C 19.761719 8.867188 20.289062 9.367188 20.476562 9.628906 C 20.609375 9.8125 20.777344 10.015625 20.871094 10.222656 C 20.933594 10.355469 20.945312 10.492188 20.996094 10.632812 C 21.128906 10.984375 21.242188 11.367188 21.410156 11.691406 C 21.496094 11.859375 21.589844 12.03125 21.695312 12.179688 C 21.761719 12.269531 21.875 12.308594 21.894531 12.445312 C 21.785156 12.601562 21.777344 12.84375 21.714844 13.039062 C 21.433594 13.925781 21.539062 15.023438 21.949219 15.679688 C 22.074219 15.878906 22.367188 16.3125 22.773438 16.144531 C 23.128906 16 23.050781 15.554688 23.152344 15.15625 C 23.175781 15.070312 23.160156 15.003906 23.207031 14.941406 L 23.207031 14.960938 L 23.527344 15.605469 C 23.769531 15.992188 24.191406 16.394531 24.550781 16.667969 C 24.738281 16.808594 24.886719 17.050781 25.125 17.132812 L 25.125 17.113281 L 25.109375 17.113281 C 25.0625 17.042969 24.988281 17.011719 24.929688 16.953125 C 24.789062 16.816406 24.632812 16.644531 24.515625 16.488281 C 24.1875 16.042969 23.898438 15.554688 23.636719 15.050781 C 23.511719 14.808594 23.402344 14.542969 23.296875 14.296875 C 23.253906 14.203125 23.253906 14.058594 23.167969 14.007812 C 23.054688 14.1875 22.882812 14.335938 22.792969 14.546875 C 22.648438 14.886719 22.628906 15.300781 22.578125 15.734375 L 22.542969 15.75 C 22.289062 15.691406 22.203125 15.433594 22.109375 15.210938 C 21.875 14.652344 21.832031 13.753906 22.039062 13.113281 C 22.09375 12.945312 22.332031 12.421875 22.234375 12.265625 C 22.1875 12.113281 22.035156 12.027344 21.949219 11.910156 C 21.84375 11.761719 21.734375 11.574219 21.660156 11.40625 C 21.46875 10.96875 21.378906 10.480469 21.175781 10.042969 C 21.078125 9.832031 20.917969 9.617188 20.78125 9.429688 C 20.632812 9.222656 20.464844 9.070312 20.351562 8.820312 C 20.308594 8.730469 20.253906 8.589844 20.316406 8.496094 C 20.335938 8.433594 20.363281 8.410156 20.421875 8.390625 C 20.527344 8.308594 20.816406 8.417969 20.925781 8.460938 C 21.214844 8.582031 21.453125 8.695312 21.699219 8.855469 C 21.816406 8.933594 21.933594 9.085938 22.074219 9.125 L 22.234375 9.125 C 22.488281 9.183594 22.773438 9.144531 23.007812 9.214844 C 23.425781 9.34375 23.800781 9.539062 24.140625 9.753906 C 25.175781 10.40625 26.019531 11.335938 26.597656 12.445312 C 26.691406 12.625 26.730469 12.796875 26.8125 12.984375 C 26.980469 13.367188 27.1875 13.761719 27.351562 14.132812 C 27.515625 14.507812 27.675781 14.882812 27.910156 15.195312 C 28.03125 15.355469 28.503906 15.445312 28.71875 15.535156 C 28.867188 15.597656 29.113281 15.664062 29.253906 15.75 C 29.527344 15.914062 29.789062 16.109375 30.046875 16.289062 C 30.171875 16.378906 30.566406 16.574219 30.585938 16.738281 Z M 22.558594 9.898438 C 22.429688 9.894531 22.335938 9.914062 22.234375 9.933594 L 22.234375 9.953125 L 22.253906 9.953125 C 22.316406 10.082031 22.425781 10.164062 22.503906 10.273438 L 22.683594 10.652344 L 22.703125 10.632812 C 22.8125 10.554688 22.863281 10.429688 22.863281 10.238281 C 22.820312 10.191406 22.8125 10.132812 22.773438 10.078125 C 22.722656 10.003906 22.625 9.960938 22.558594 9.898438 Z M 22.558594 9.898438 "/>
</g>
</svg>
