<?xml version="1.0" encoding="UTF-8"?>
<svg xmlns="http://www.w3.org/2000/svg" xmlns:xlink="http://www.w3.org/1999/xlink" width="32px" height="32px" viewBox="0 0 32 32" version="1.1">
<g id="surface1">
<path style=" stroke:none;fill-rule:nonzero;fill:rgb(100%,0.392157%,0.392157%);fill-opacity:1;" d="M 12.164062 15.089844 C 9.222656 13.390625 7.785156 9.925781 8.664062 6.644531 C 9.546875 3.359375 12.519531 1.078125 15.917969 1.078125 C 19.316406 1.078125 22.292969 3.359375 23.171875 6.644531 C 24.050781 9.925781 22.617188 13.390625 19.671875 15.089844 L 17.414062 11.175781 C 18.582031 10.5 19.15625 9.121094 18.804688 7.8125 C 18.453125 6.507812 17.269531 5.601562 15.917969 5.601562 C 14.566406 5.601562 13.382812 6.507812 13.035156 7.8125 C 12.683594 9.121094 13.253906 10.5 14.425781 11.175781 Z M 12.164062 15.089844 "/>
<path style=" stroke:none;fill-rule:nonzero;fill:rgb(0.392157%,0.392157%,100%);fill-opacity:1;" d="M 28.246094 16.910156 C 31.1875 18.609375 32.625 22.074219 31.746094 25.355469 C 30.863281 28.640625 27.890625 30.921875 24.492188 30.921875 C 21.09375 30.921875 18.117188 28.640625 17.238281 25.355469 C 16.359375 22.074219 17.792969 18.609375 20.734375 16.910156 L 22.996094 20.824219 C 21.824219 21.5 21.253906 22.878906 21.605469 24.1875 C 21.953125 25.492188 23.136719 26.398438 24.492188 26.398438 C 25.84375 26.398438 27.027344 25.492188 27.375 24.1875 C 27.726562 22.878906 27.15625 21.5 25.984375 20.824219 Z M 28.246094 16.910156 "/>
<path style=" stroke:none;fill-rule:nonzero;fill:rgb(0.392157%,100%,0.392157%);fill-opacity:1;" d="M 15.019531 23.414062 C 15.019531 26.8125 12.734375 29.785156 9.453125 30.664062 C 6.171875 31.546875 2.707031 30.109375 1.007812 27.167969 C -0.691406 24.222656 -0.203125 20.503906 2.199219 18.101562 C 4.601562 15.699219 8.320312 15.210938 11.265625 16.910156 L 9.003906 20.824219 C 7.832031 20.148438 6.351562 20.34375 5.398438 21.300781 C 4.441406 22.253906 4.246094 23.734375 4.921875 24.90625 C 5.597656 26.078125 6.976562 26.648438 8.28125 26.296875 C 9.589844 25.949219 10.496094 24.765625 10.496094 23.414062 Z M 15.019531 23.414062 "/>
</g>
</svg>
