<?xml version="1.0" encoding="UTF-8"?>
<svg xmlns="http://www.w3.org/2000/svg" xmlns:xlink="http://www.w3.org/1999/xlink" width="32px" height="32px" viewBox="0 0 32 32" version="1.1">
<g id="surface1">
<path style=" stroke:none;fill-rule:nonzero;fill:rgb(0%,0%,0%);fill-opacity:1;" d="M 21.496094 19.019531 C 21.65625 17.703125 21.609375 17.511719 22.585938 17.722656 L 22.835938 17.746094 C 23.589844 17.78125 24.574219 17.625 25.152344 17.355469 C 26.402344 16.777344 27.140625 15.8125 25.910156 16.066406 C 23.105469 16.644531 22.914062 15.695312 22.914062 15.695312 C 25.875 11.300781 27.113281 5.726562 26.042969 4.359375 C 23.132812 0.636719 18.085938 2.398438 18.003906 2.441406 L 17.976562 2.449219 C 17.421875 2.332031 16.800781 2.265625 16.105469 2.253906 C 14.835938 2.234375 13.875 2.585938 13.144531 3.140625 C 13.144531 3.140625 4.148438 -0.566406 4.566406 7.800781 C 4.652344 9.582031 7.117188 21.273438 10.054688 17.742188 C 11.128906 16.449219 12.164062 15.359375 12.164062 15.359375 C 12.679688 15.699219 13.296875 15.875 13.945312 15.8125 L 13.996094 15.769531 C 13.980469 15.929688 13.984375 16.085938 14.015625 16.273438 C 13.257812 17.117188 13.480469 17.265625 11.96875 17.578125 C 10.4375 17.894531 11.335938 18.453125 11.921875 18.601562 C 12.632812 18.78125 14.28125 19.03125 15.394531 17.472656 L 15.347656 17.652344 C 15.648438 17.890625 15.625 19.359375 15.667969 20.410156 C 15.710938 21.457031 15.78125 22.4375 15.996094 23.015625 C 16.207031 23.59375 16.460938 25.082031 18.449219 24.65625 C 20.109375 24.296875 21.382812 23.785156 21.496094 19.019531 "/>
<path style=" stroke:none;fill-rule:nonzero;fill:rgb(0%,0%,0%);fill-opacity:1;" d="M 17.800781 25.691406 C 16.921875 25.691406 16.351562 25.351562 16.003906 25.023438 C 15.476562 24.527344 15.269531 23.890625 15.144531 23.507812 L 15.089844 23.351562 C 14.839844 22.671875 14.753906 21.699219 14.707031 20.445312 C 14.699219 20.257812 14.691406 20.066406 14.6875 19.859375 C 14.683594 19.707031 14.675781 19.519531 14.667969 19.320312 C 14.355469 19.472656 14.023438 19.578125 13.671875 19.636719 C 13.050781 19.746094 12.382812 19.710938 11.6875 19.535156 C 11.199219 19.414062 10.6875 19.160156 10.398438 18.765625 C 9.550781 19.507812 8.746094 19.40625 8.304688 19.261719 C 7.53125 19.003906 6.835938 18.277344 6.183594 17.039062 C 5.71875 16.15625 5.269531 15.007812 4.847656 13.628906 C 4.109375 11.21875 3.644531 8.683594 3.601562 7.851562 C 3.472656 5.242188 4.171875 3.378906 5.6875 2.308594 C 8.078125 0.621094 11.695312 1.613281 13.015625 2.066406 C 13.902344 1.53125 14.941406 1.269531 16.121094 1.289062 C 16.753906 1.300781 17.355469 1.355469 17.917969 1.453125 C 18.5 1.273438 19.652344 1.007812 20.972656 1.023438 C 23.40625 1.054688 25.421875 2 26.804688 3.765625 C 27.789062 5.023438 27.300781 7.667969 26.921875 9.132812 C 26.390625 11.191406 25.460938 13.382812 24.316406 15.289062 C 24.625 15.289062 25.074219 15.253906 25.714844 15.121094 C 26.980469 14.859375 27.347656 15.535156 27.449219 15.839844 C 27.851562 17.058594 26.105469 17.976562 25.558594 18.230469 C 24.863281 18.554688 23.722656 18.75 22.792969 18.707031 L 22.75 18.703125 L 22.507812 18.683594 L 22.484375 18.886719 L 22.460938 19.085938 C 22.398438 21.503906 22.050781 23.035156 21.339844 24.042969 C 20.597656 25.105469 19.5625 25.402344 18.652344 25.597656 C 18.339844 25.664062 18.058594 25.691406 17.800781 25.691406 Z M 15.953125 16.898438 C 16.519531 17.351562 16.570312 18.207031 16.613281 19.804688 C 16.617188 20.003906 16.625 20.195312 16.632812 20.371094 C 16.652344 20.902344 16.703125 22.152344 16.898438 22.679688 C 16.925781 22.753906 16.949219 22.832031 16.976562 22.910156 C 17.195312 23.578125 17.304688 23.914062 18.246094 23.710938 C 19.039062 23.542969 19.445312 23.390625 19.765625 22.9375 C 20.226562 22.277344 20.484375 20.953125 20.535156 18.996094 L 21.496094 19.019531 L 20.539062 18.902344 L 20.566406 18.664062 C 20.660156 17.878906 20.726562 17.308594 21.253906 16.933594 C 21.675781 16.632812 22.15625 16.660156 22.539062 16.730469 C 22.117188 16.410156 22 16.039062 21.96875 15.886719 L 21.890625 15.488281 L 22.117188 15.15625 C 23.414062 13.226562 24.488281 10.855469 25.058594 8.648438 C 25.640625 6.382812 25.464844 5.179688 25.285156 4.953125 C 22.921875 1.9375 18.828125 3.183594 18.402344 3.324219 L 18.328125 3.363281 L 17.964844 3.429688 L 17.78125 3.390625 C 17.269531 3.285156 16.699219 3.226562 16.089844 3.21875 C 15.132812 3.199219 14.359375 3.425781 13.726562 3.90625 L 13.285156 4.242188 L 12.777344 4.03125 C 11.6875 3.585938 8.484375 2.691406 6.796875 3.886719 C 5.859375 4.550781 5.433594 5.851562 5.527344 7.753906 C 5.558594 8.382812 5.984375 10.757812 6.6875 13.066406 C 7.660156 16.25 8.546875 17.308594 8.914062 17.433594 C 8.980469 17.453125 9.144531 17.324219 9.3125 17.125 C 10.394531 15.824219 11.421875 14.738281 11.464844 14.695312 L 12.023438 14.109375 L 12.699219 14.554688 C 12.96875 14.734375 13.269531 14.839844 13.578125 14.859375 L 15.183594 13.484375 L 14.953125 15.863281 C 14.945312 15.917969 14.945312 15.988281 14.964844 16.125 L 15.035156 16.574219 L 14.734375 16.914062 L 14.699219 16.953125 L 15.582031 17.363281 Z M 15.953125 16.898438 "/>
<path style=" stroke:none;fill-rule:nonzero;fill:rgb(20%,40.392157%,56.862745%);fill-opacity:1;" d="M 25.910156 16.066406 C 23.109375 16.644531 22.914062 15.695312 22.914062 15.695312 C 25.875 11.300781 27.113281 5.722656 26.042969 4.359375 C 23.132812 0.636719 18.085938 2.398438 18.003906 2.441406 L 17.976562 2.449219 C 17.421875 2.332031 16.800781 2.265625 16.105469 2.253906 C 14.835938 2.234375 13.875 2.585938 13.144531 3.140625 C 13.144531 3.140625 4.148438 -0.566406 4.566406 7.800781 C 4.652344 9.582031 7.117188 21.273438 10.054688 17.742188 C 11.128906 16.449219 12.164062 15.359375 12.164062 15.359375 C 12.679688 15.699219 13.296875 15.875 13.945312 15.8125 L 13.992188 15.769531 C 13.976562 15.929688 13.984375 16.085938 14.015625 16.273438 C 13.257812 17.117188 13.480469 17.265625 11.964844 17.578125 C 10.4375 17.894531 11.335938 18.453125 11.921875 18.601562 C 12.632812 18.78125 14.28125 19.03125 15.394531 17.472656 L 15.347656 17.652344 C 15.644531 17.890625 15.851562 19.195312 15.820312 20.382812 C 15.785156 21.566406 15.761719 22.378906 15.992188 23.015625 C 16.226562 23.652344 16.460938 25.082031 18.449219 24.65625 C 20.109375 24.296875 20.972656 23.375 21.089844 21.835938 C 21.175781 20.742188 21.367188 20.90625 21.382812 19.925781 L 21.535156 19.460938 C 21.714844 17.980469 21.5625 17.5 22.585938 17.722656 L 22.835938 17.746094 C 23.589844 17.78125 24.574219 17.625 25.15625 17.355469 C 26.402344 16.777344 27.140625 15.8125 25.910156 16.066406 Z M 25.910156 16.066406 "/>
<path style=" stroke:none;fill-rule:nonzero;fill:rgb(100%,100%,100%);fill-opacity:1;" d="M 17.902344 25.097656 C 16.246094 25.097656 15.71875 23.785156 15.503906 23.25 C 15.191406 22.460938 15.121094 19.410156 15.191406 16.90625 C 15.199219 16.726562 15.34375 16.589844 15.523438 16.59375 C 15.699219 16.597656 15.839844 16.746094 15.835938 16.925781 C 15.753906 19.8125 15.867188 22.429688 16.101562 23.011719 C 16.464844 23.917969 17.015625 24.710938 18.574219 24.378906 C 20.050781 24.0625 20.605469 23.5 20.851562 22.070312 C 21.042969 20.972656 21.414062 17.851562 21.460938 17.238281 C 21.476562 17.058594 21.628906 16.925781 21.804688 16.941406 C 21.984375 16.953125 22.117188 17.109375 22.101562 17.285156 C 22.054688 17.925781 21.683594 21.042969 21.484375 22.179688 C 21.195312 23.871094 20.441406 24.636719 18.707031 25.007812 C 18.414062 25.070312 18.144531 25.097656 17.902344 25.097656 Z M 8.914062 18.6875 C 8.757812 18.6875 8.613281 18.660156 8.488281 18.617188 C 7.410156 18.257812 6.386719 16.503906 5.441406 13.40625 C 4.71875 11.046875 4.265625 8.582031 4.222656 7.78125 C 4.105469 5.410156 4.714844 3.730469 6.039062 2.792969 C 8.660156 0.9375 13.066406 2.703125 13.25 2.78125 C 13.414062 2.847656 13.496094 3.035156 13.425781 3.199219 C 13.359375 3.363281 13.171875 3.441406 13.007812 3.375 C 12.964844 3.359375 8.742188 1.664062 6.410156 3.320312 C 5.277344 4.121094 4.757812 5.613281 4.867188 7.75 C 4.898438 8.425781 5.324219 10.828125 6.054688 13.21875 C 6.898438 15.984375 7.859375 17.730469 8.691406 18.007812 C 8.820312 18.050781 9.21875 18.183594 9.789062 17.5 C 10.855469 16.214844 11.835938 15.191406 11.847656 15.179688 C 11.96875 15.050781 12.171875 15.046875 12.300781 15.171875 C 12.429688 15.292969 12.433594 15.496094 12.308594 15.625 C 12.300781 15.632812 11.335938 16.644531 10.28125 17.910156 C 9.78125 18.511719 9.304688 18.6875 8.914062 18.6875 Z M 22.894531 15.980469 C 22.832031 15.980469 22.769531 15.960938 22.714844 15.925781 C 22.566406 15.824219 22.527344 15.625 22.628906 15.480469 C 25.621094 11.039062 26.671875 5.671875 25.773438 4.523438 C 24.640625 3.074219 23.039062 2.320312 21.019531 2.277344 C 19.523438 2.242188 18.332031 2.625 18.136719 2.691406 L 18.089844 2.710938 C 17.894531 2.773438 17.742188 2.667969 17.6875 2.542969 C 17.621094 2.394531 17.675781 2.21875 17.816406 2.132812 L 17.902344 2.097656 L 17.898438 2.101562 L 17.902344 2.097656 C 18.230469 1.976562 19.4375 1.613281 20.933594 1.632812 C 23.171875 1.65625 25.019531 2.519531 26.277344 4.125 C 26.875 4.886719 26.875 6.640625 26.28125 8.9375 C 25.675781 11.277344 24.539062 13.792969 23.160156 15.839844 C 23.097656 15.929688 22.996094 15.980469 22.894531 15.980469 Z M 23.046875 18.035156 C 22.535156 18.035156 22.078125 17.964844 21.804688 17.800781 C 21.523438 17.628906 21.46875 17.402344 21.460938 17.277344 C 21.382812 15.929688 22.128906 15.691406 22.511719 15.585938 C 22.457031 15.503906 22.382812 15.410156 22.304688 15.3125 C 22.082031 15.039062 21.777344 14.65625 21.542969 14.089844 C 21.507812 14 21.394531 13.796875 21.261719 13.558594 C 20.539062 12.265625 19.039062 9.574219 20.003906 8.199219 C 20.449219 7.5625 21.335938 7.308594 22.644531 7.449219 C 22.261719 6.277344 20.425781 2.609375 16.078125 2.539062 C 14.773438 2.515625 13.699219 2.917969 12.894531 3.734375 C 11.089844 5.554688 11.15625 8.851562 11.15625 8.886719 C 11.160156 9.0625 11.019531 9.210938 10.84375 9.214844 C 10.664062 9.21875 10.519531 9.078125 10.515625 8.902344 C 10.507812 8.753906 10.441406 5.296875 12.4375 3.28125 C 13.371094 2.339844 14.601562 1.871094 16.089844 1.898438 C 18.871094 1.941406 20.664062 3.355469 21.675781 4.535156 C 22.777344 5.820312 23.320312 7.234375 23.363281 7.707031 C 23.398438 8.058594 23.144531 8.128906 23.09375 8.140625 L 22.976562 8.144531 C 21.695312 7.9375 20.871094 8.078125 20.53125 8.566406 C 19.796875 9.613281 21.214844 12.15625 21.820312 13.242188 C 21.976562 13.519531 22.085938 13.722656 22.140625 13.84375 C 22.335938 14.328125 22.597656 14.652344 22.804688 14.914062 C 22.988281 15.140625 23.148438 15.339844 23.203125 15.574219 C 23.230469 15.621094 23.605469 16.171875 25.828125 15.714844 C 26.382812 15.601562 26.71875 15.699219 26.820312 16.007812 C 27.019531 16.613281 25.894531 17.320312 25.269531 17.613281 C 24.710938 17.871094 23.820312 18.035156 23.046875 18.035156 Z M 22.101562 17.226562 C 22.171875 17.296875 22.523438 17.421875 23.253906 17.390625 C 23.902344 17.359375 24.589844 17.21875 25 17.027344 C 25.527344 16.785156 25.875 16.511719 26.058594 16.324219 L 25.957031 16.34375 C 24.535156 16.636719 23.53125 16.597656 22.972656 16.226562 C 22.929688 16.203125 22.894531 16.175781 22.863281 16.148438 C 22.800781 16.171875 22.746094 16.1875 22.707031 16.199219 C 22.386719 16.289062 22.058594 16.378906 22.101562 17.226562 Z M 12.929688 19.019531 C 12.574219 19.019531 12.203125 18.972656 11.824219 18.878906 C 11.433594 18.78125 10.769531 18.484375 10.78125 18 C 10.789062 17.453125 11.582031 17.289062 11.882812 17.226562 C 12.960938 17.007812 13.03125 16.917969 13.367188 16.488281 C 13.464844 16.363281 13.589844 16.210938 13.753906 16.023438 C 14.003906 15.746094 14.273438 15.605469 14.558594 15.605469 C 14.757812 15.605469 14.921875 15.671875 15.027344 15.71875 C 15.371094 15.859375 15.660156 16.203125 15.777344 16.617188 C 15.882812 16.988281 15.832031 17.347656 15.636719 17.625 C 14.984375 18.539062 14.046875 19.019531 12.929688 19.019531 Z M 11.472656 18.027344 C 11.570312 18.101562 11.765625 18.199219 11.980469 18.253906 C 12.308594 18.335938 12.628906 18.378906 12.929688 18.378906 C 13.84375 18.378906 14.578125 18 15.113281 17.253906 C 15.222656 17.097656 15.191406 16.898438 15.160156 16.792969 C 15.097656 16.578125 14.941406 16.378906 14.785156 16.3125 C 14.695312 16.277344 14.625 16.246094 14.558594 16.246094 C 14.523438 16.246094 14.414062 16.246094 14.234375 16.453125 C 14.082031 16.621094 13.96875 16.761719 13.871094 16.886719 C 13.453125 17.417969 13.261719 17.601562 12.011719 17.855469 C 11.707031 17.921875 11.550781 17.984375 11.472656 18.027344 Z M 13.945312 16.542969 C 13.789062 16.542969 13.652344 16.429688 13.628906 16.273438 C 13.617188 16.21875 13.613281 16.164062 13.609375 16.109375 C 12.792969 16.09375 12.003906 15.742188 11.402344 15.117188 C 10.644531 14.328125 10.300781 13.230469 10.457031 12.113281 C 10.628906 10.898438 10.5625 9.824219 10.53125 9.246094 C 10.519531 9.085938 10.511719 8.972656 10.515625 8.890625 C 10.515625 8.789062 10.515625 8.519531 11.417969 8.0625 C 11.738281 7.902344 12.382812 7.617188 13.082031 7.546875 C 14.246094 7.425781 15.011719 7.941406 15.242188 9.003906 C 15.863281 11.867188 15.292969 13.136719 14.875 14.0625 C 14.796875 14.234375 14.722656 14.398438 14.664062 14.554688 L 14.613281 14.691406 C 14.394531 15.285156 14.203125 15.792969 14.261719 16.175781 C 14.289062 16.347656 14.167969 16.511719 13.992188 16.539062 Z M 11.160156 8.980469 L 11.171875 9.210938 C 11.207031 9.808594 11.273438 10.921875 11.09375 12.203125 C 10.964844 13.125 11.246094 14.027344 11.867188 14.675781 C 12.359375 15.1875 13.003906 15.46875 13.667969 15.46875 L 13.679688 15.46875 C 13.757812 15.15625 13.878906 14.824219 14.011719 14.46875 L 14.0625 14.332031 C 14.128906 14.152344 14.207031 13.980469 14.289062 13.796875 C 14.691406 12.90625 15.1875 11.796875 14.613281 9.140625 C 14.5 8.613281 14.222656 8.308594 13.769531 8.207031 C 12.839844 8.003906 11.449219 8.703125 11.160156 8.980469 Z M 13.097656 8.84375 C 13.082031 8.957031 13.304688 9.261719 13.597656 9.300781 C 13.890625 9.34375 14.140625 9.105469 14.15625 8.992188 C 14.171875 8.878906 13.945312 8.753906 13.65625 8.710938 C 13.363281 8.671875 13.113281 8.730469 13.097656 8.84375 Z M 13.664062 9.414062 L 13.582031 9.40625 C 13.402344 9.382812 13.21875 9.269531 13.09375 9.101562 C 13.050781 9.042969 12.976562 8.929688 12.992188 8.828125 C 13.011719 8.679688 13.191406 8.59375 13.476562 8.59375 C 13.539062 8.59375 13.601562 8.597656 13.667969 8.605469 C 13.824219 8.628906 13.96875 8.671875 14.074219 8.730469 C 14.257812 8.832031 14.269531 8.949219 14.261719 9.007812 C 14.238281 9.171875 13.976562 9.414062 13.664062 9.414062 Z M 13.203125 8.863281 C 13.214844 8.933594 13.386719 9.164062 13.613281 9.195312 L 13.664062 9.199219 C 13.875 9.199219 14.027344 9.035156 14.046875 8.980469 C 14.027344 8.945312 13.894531 8.855469 13.640625 8.820312 C 13.582031 8.8125 13.527344 8.808594 13.472656 8.808594 C 13.3125 8.804688 13.222656 8.84375 13.203125 8.863281 Z M 21.984375 8.613281 C 22 8.726562 21.777344 9.03125 21.484375 9.070312 C 21.191406 9.109375 20.941406 8.875 20.925781 8.761719 C 20.910156 8.648438 21.132812 8.519531 21.425781 8.480469 C 21.71875 8.441406 21.96875 8.5 21.984375 8.613281 Z M 21.417969 9.128906 C 21.136719 9.128906 20.894531 8.910156 20.875 8.765625 C 20.851562 8.597656 21.128906 8.46875 21.417969 8.429688 C 21.484375 8.417969 21.546875 8.414062 21.605469 8.414062 C 21.855469 8.414062 22.019531 8.488281 22.039062 8.605469 C 22.046875 8.683594 21.988281 8.800781 21.890625 8.90625 C 21.820312 8.976562 21.683594 9.097656 21.492188 9.121094 Z M 21.605469 8.519531 C 21.550781 8.519531 21.492188 8.527344 21.433594 8.535156 C 21.144531 8.574219 20.972656 8.691406 20.980469 8.753906 C 20.988281 8.820312 21.175781 9.019531 21.417969 9.019531 L 21.476562 9.015625 C 21.632812 8.996094 21.753906 8.890625 21.808594 8.832031 C 21.898438 8.738281 21.933594 8.648438 21.929688 8.621094 C 21.925781 8.582031 21.820312 8.519531 21.605469 8.519531 Z M 22.40625 15.132812 C 22.34375 15.132812 22.28125 15.117188 22.226562 15.082031 C 22.078125 14.980469 22.039062 14.78125 22.136719 14.632812 C 22.820312 13.613281 22.695312 12.570312 22.574219 11.5625 C 22.523438 11.132812 22.472656 10.691406 22.484375 10.261719 C 22.5 9.824219 22.554688 9.464844 22.609375 9.113281 C 22.671875 8.699219 22.734375 8.308594 22.707031 7.84375 C 22.699219 7.667969 22.832031 7.515625 23.011719 7.503906 C 23.1875 7.496094 23.339844 7.632812 23.347656 7.808594 C 23.378906 8.339844 23.308594 8.78125 23.242188 9.210938 C 23.191406 9.542969 23.140625 9.882812 23.128906 10.285156 C 23.113281 10.660156 23.164062 11.0625 23.214844 11.484375 C 23.34375 12.558594 23.488281 13.773438 22.671875 14.992188 C 22.609375 15.085938 22.507812 15.132812 22.40625 15.132812 Z M 22.40625 15.132812 "/>
<path style=" stroke:none;fill-rule:nonzero;fill:rgb(0%,0%,0%);fill-opacity:1;" d="M 0.707031 25.796875 C 0.980469 25.75 1.339844 25.710938 1.792969 25.710938 C 2.351562 25.710938 2.761719 25.839844 3.023438 26.074219 C 3.261719 26.285156 3.40625 26.601562 3.40625 26.992188 C 3.40625 27.390625 3.289062 27.699219 3.066406 27.929688 C 2.769531 28.246094 2.28125 28.410156 1.730469 28.410156 C 1.558594 28.410156 1.402344 28.402344 1.273438 28.371094 L 1.273438 30.125 L 0.707031 30.125 Z M 1.273438 27.910156 C 1.398438 27.941406 1.554688 27.953125 1.742188 27.953125 C 2.425781 27.953125 2.839844 27.621094 2.839844 27.019531 C 2.839844 26.441406 2.429688 26.160156 1.808594 26.160156 C 1.558594 26.160156 1.371094 26.179688 1.273438 26.207031 Z M 6.832031 28.527344 C 6.832031 29.691406 6.027344 30.195312 5.265625 30.195312 C 4.414062 30.195312 3.757812 29.574219 3.757812 28.578125 C 3.757812 27.523438 4.445312 26.90625 5.316406 26.90625 C 6.222656 26.90625 6.832031 27.5625 6.832031 28.527344 Z M 4.335938 28.558594 C 4.335938 29.246094 4.734375 29.765625 5.292969 29.765625 C 5.835938 29.765625 6.246094 29.253906 6.246094 28.546875 C 6.246094 28.011719 5.980469 27.335938 5.304688 27.335938 C 4.628906 27.335938 4.335938 27.960938 4.335938 28.558594 Z M 7.476562 29.539062 C 7.644531 29.652344 7.941406 29.765625 8.230469 29.765625 C 8.644531 29.765625 8.839844 29.558594 8.839844 29.300781 C 8.839844 29.027344 8.679688 28.878906 8.253906 28.722656 C 7.691406 28.519531 7.421875 28.207031 7.421875 27.832031 C 7.421875 27.324219 7.832031 26.90625 8.507812 26.90625 C 8.828125 26.90625 9.105469 27 9.28125 27.101562 L 9.140625 27.519531 C 9.015625 27.441406 8.789062 27.335938 8.496094 27.335938 C 8.15625 27.335938 7.96875 27.53125 7.96875 27.765625 C 7.96875 28.027344 8.160156 28.140625 8.566406 28.296875 C 9.113281 28.507812 9.394531 28.78125 9.394531 29.246094 C 9.394531 29.800781 8.964844 30.191406 8.214844 30.191406 C 7.871094 30.191406 7.554688 30.105469 7.332031 29.976562 Z M 10.816406 26.074219 L 10.816406 26.980469 L 11.636719 26.980469 L 11.636719 27.414062 L 10.816406 27.414062 L 10.816406 29.109375 C 10.816406 29.5 10.925781 29.722656 11.246094 29.722656 C 11.394531 29.722656 11.503906 29.703125 11.578125 29.683594 L 11.601562 30.113281 C 11.492188 30.15625 11.316406 30.191406 11.097656 30.191406 C 10.828125 30.191406 10.613281 30.105469 10.476562 29.949219 C 10.316406 29.78125 10.257812 29.5 10.257812 29.128906 L 10.257812 27.414062 L 9.769531 27.414062 L 9.769531 26.980469 L 10.257812 26.980469 L 10.257812 26.226562 Z M 14.949219 26.980469 C 14.9375 27.207031 14.925781 27.460938 14.925781 27.84375 L 14.925781 29.671875 C 14.925781 30.390625 14.78125 30.832031 14.476562 31.105469 C 14.171875 31.394531 13.726562 31.484375 13.332031 31.484375 C 12.953125 31.484375 12.539062 31.394531 12.285156 31.222656 L 12.429688 30.789062 C 12.636719 30.917969 12.960938 31.035156 13.351562 31.035156 C 13.9375 31.035156 14.367188 30.730469 14.367188 29.9375 L 14.367188 29.585938 L 14.351562 29.585938 C 14.175781 29.878906 13.839844 30.113281 13.351562 30.113281 C 12.570312 30.113281 12.011719 29.449219 12.011719 28.578125 C 12.011719 27.511719 12.707031 26.90625 13.429688 26.90625 C 13.976562 26.90625 14.273438 27.195312 14.410156 27.453125 L 14.425781 27.453125 L 14.449219 26.980469 Z M 14.359375 28.21875 C 14.359375 28.121094 14.351562 28.039062 14.328125 27.960938 C 14.222656 27.628906 13.941406 27.355469 13.527344 27.355469 C 12.980469 27.355469 12.589844 27.816406 12.589844 28.546875 C 12.589844 29.164062 12.902344 29.675781 13.519531 29.675781 C 13.871094 29.675781 14.191406 29.457031 14.3125 29.089844 C 14.347656 28.992188 14.359375 28.882812 14.359375 28.785156 Z M 15.835938 27.960938 C 15.835938 27.589844 15.828125 27.273438 15.808594 26.980469 L 16.308594 26.980469 L 16.328125 27.597656 L 16.355469 27.597656 C 16.496094 27.175781 16.839844 26.90625 17.226562 26.90625 C 17.289062 26.90625 17.335938 26.914062 17.386719 26.925781 L 17.386719 27.464844 C 17.328125 27.453125 17.269531 27.445312 17.191406 27.445312 C 16.789062 27.445312 16.503906 27.753906 16.425781 28.179688 C 16.414062 28.257812 16.398438 28.351562 16.398438 28.449219 L 16.398438 30.125 L 15.835938 30.125 Z M 18.214844 28.65625 C 18.226562 29.429688 18.71875 29.746094 19.292969 29.746094 C 19.703125 29.746094 19.949219 29.675781 20.164062 29.585938 L 20.261719 29.996094 C 20.058594 30.085938 19.714844 30.191406 19.214844 30.191406 C 18.246094 30.191406 17.667969 29.554688 17.667969 28.605469 C 17.667969 27.65625 18.226562 26.90625 19.144531 26.90625 C 20.167969 26.90625 20.441406 27.8125 20.441406 28.390625 C 20.441406 28.507812 20.429688 28.597656 20.421875 28.65625 Z M 19.890625 28.246094 C 19.898438 27.882812 19.742188 27.316406 19.097656 27.316406 C 18.519531 27.316406 18.265625 27.851562 18.21875 28.246094 Z M 19.890625 28.246094 "/>
<path style=" stroke:none;fill-rule:nonzero;fill:rgb(20%,40.392157%,56.862745%);fill-opacity:1;" d="M 21.09375 29.4375 C 21.347656 29.59375 21.714844 29.722656 22.105469 29.722656 C 22.683594 29.722656 23.023438 29.417969 23.023438 28.972656 C 23.023438 28.566406 22.789062 28.332031 22.199219 28.101562 C 21.484375 27.851562 21.039062 27.480469 21.039062 26.863281 C 21.039062 26.179688 21.605469 25.671875 22.457031 25.671875 C 22.90625 25.671875 23.230469 25.777344 23.425781 25.886719 L 23.269531 26.347656 C 23.128906 26.269531 22.835938 26.140625 22.4375 26.140625 C 21.839844 26.140625 21.613281 26.496094 21.613281 26.796875 C 21.613281 27.207031 21.878906 27.40625 22.484375 27.640625 C 23.226562 27.929688 23.601562 28.285156 23.601562 28.929688 C 23.601562 29.605469 23.101562 30.191406 22.066406 30.191406 C 21.644531 30.191406 21.183594 30.066406 20.949219 29.910156 Z M 27.988281 30.769531 C 27.398438 30.613281 26.820312 30.4375 26.3125 30.261719 C 26.222656 30.230469 26.128906 30.195312 26.046875 30.195312 C 25.003906 30.15625 24.117188 29.390625 24.117188 27.980469 C 24.117188 26.574219 24.972656 25.671875 26.15625 25.671875 C 27.347656 25.671875 28.121094 26.59375 28.121094 27.890625 C 28.121094 29.011719 27.597656 29.734375 26.871094 29.988281 L 26.871094 30.015625 C 27.308594 30.125 27.78125 30.230469 28.152344 30.292969 Z M 27.519531 27.914062 C 27.519531 27.039062 27.066406 26.132812 26.136719 26.132812 C 25.179688 26.132812 24.714844 27.019531 24.71875 27.96875 C 24.714844 28.898438 25.226562 29.734375 26.109375 29.734375 C 27.015625 29.734375 27.519531 28.914062 27.519531 27.914062 Z M 28.851562 25.742188 L 29.417969 25.742188 L 29.417969 29.652344 L 31.292969 29.652344 L 31.292969 30.125 L 28.851562 30.125 Z M 28.851562 25.742188 "/>
</g>
</svg>
