<?xml version="1.0" encoding="UTF-8"?>
<svg xmlns="http://www.w3.org/2000/svg" xmlns:xlink="http://www.w3.org/1999/xlink" width="32px" height="32px" viewBox="0 0 32 32" version="1.1">
<g id="surface1">
<path style=" stroke:none;fill-rule:nonzero;fill:rgb(63.137255%,47.45098%,86.27451%);fill-opacity:1;" d="M 31.859375 9.472656 C 31.859375 8.941406 31.730469 8.46875 31.46875 8.066406 C 31.214844 7.667969 30.835938 7.335938 30.324219 7.070312 C 26.101562 4.90625 21.875 2.75 17.652344 0.582031 C 16.515625 0 15.410156 0.0195312 14.28125 0.613281 C 12.601562 1.496094 4.183594 5.78125 1.675781 7.070312 C 0.644531 7.601562 0.140625 8.414062 0.140625 9.472656 C 0.140625 13.824219 0.140625 18.175781 0.140625 22.527344 C 0.140625 23.050781 0.261719 23.511719 0.511719 23.910156 C 0.765625 24.316406 1.152344 24.660156 1.675781 24.929688 C 4.183594 26.21875 12.601562 30.503906 14.28125 31.386719 C 15.410156 31.980469 16.515625 32 17.652344 31.414062 C 21.875 29.25 26.101562 27.09375 30.324219 24.929688 C 30.847656 24.660156 31.234375 24.316406 31.488281 23.90625 C 31.734375 23.507812 31.859375 23.046875 31.859375 22.527344 C 31.859375 22.527344 31.859375 13.824219 31.859375 9.472656 "/>
<path style=" stroke:none;fill-rule:nonzero;fill:rgb(15.686275%,0%,40.784314%);fill-opacity:1;" d="M 16.046875 15.957031 L 0.511719 23.910156 C 0.765625 24.316406 1.152344 24.660156 1.675781 24.929688 C 4.183594 26.21875 12.601562 30.503906 14.28125 31.386719 C 15.410156 31.980469 16.515625 32 17.652344 31.414062 C 21.875 29.25 26.101562 27.09375 30.324219 24.929688 C 30.847656 24.660156 31.234375 24.316406 31.488281 23.90625 Z M 16.046875 15.957031 "/>
<path style=" stroke:none;fill-rule:nonzero;fill:rgb(22.352941%,0%,56.862745%);fill-opacity:1;" d="M 31.859375 9.472656 C 31.859375 8.941406 31.730469 8.46875 31.46875 8.066406 L 16.046875 15.957031 L 31.488281 23.90625 C 31.734375 23.507812 31.859375 23.046875 31.859375 22.527344 C 31.859375 22.527344 31.859375 13.824219 31.859375 9.472656 "/>
<path style=" stroke:none;fill-rule:nonzero;fill:rgb(100%,100%,100%);fill-opacity:1;" d="M 25.195312 12.984375 L 25.195312 14.472656 L 26.867188 14.472656 L 26.867188 12.984375 L 27.703125 12.984375 L 27.703125 14.472656 L 29.375 14.472656 L 29.375 15.214844 L 27.703125 15.214844 L 27.703125 16.699219 L 29.375 16.699219 L 29.375 17.445312 L 27.703125 17.445312 L 27.703125 18.929688 L 26.867188 18.929688 L 26.867188 17.445312 L 25.195312 17.445312 L 25.195312 18.929688 L 24.359375 18.929688 L 24.359375 17.445312 L 22.6875 17.445312 L 22.6875 16.699219 L 24.359375 16.699219 L 24.359375 15.214844 L 22.6875 15.214844 L 22.6875 14.472656 L 24.359375 14.472656 L 24.359375 12.984375 Z M 26.867188 15.214844 L 25.195312 15.214844 L 25.195312 16.699219 L 26.867188 16.699219 Z M 26.867188 15.214844 "/>
<path style=" stroke:none;fill-rule:nonzero;fill:rgb(100%,100%,100%);fill-opacity:1;" d="M 16.082031 5.519531 C 20.445312 5.519531 24.253906 7.625 26.292969 10.753906 L 26.273438 10.726562 L 21.140625 13.351562 C 20.128906 11.832031 18.277344 10.804688 16.148438 10.78125 L 16.082031 10.78125 C 12.839844 10.78125 10.210938 13.117188 10.210938 16 C 10.210938 16.90625 10.476562 17.800781 10.984375 18.589844 C 11.996094 20.160156 13.902344 21.21875 16.082031 21.21875 C 18.277344 21.21875 20.191406 20.144531 21.199219 18.558594 L 21.175781 18.597656 L 26.296875 21.234375 C 24.28125 24.335938 20.523438 26.4375 16.214844 26.476562 L 16.082031 26.480469 C 11.707031 26.480469 7.890625 24.359375 5.855469 21.214844 C 4.859375 19.679688 4.292969 17.898438 4.292969 16 C 4.292969 10.210938 9.570312 5.519531 16.082031 5.519531 Z M 16.082031 5.519531 "/>
</g>
</svg>
