<?xml version="1.0" encoding="UTF-8"?>
<svg xmlns="http://www.w3.org/2000/svg" xmlns:xlink="http://www.w3.org/1999/xlink" width="32px" height="32px" viewBox="0 0 32 32" version="1.1">
<g id="surface1">
<path style=" stroke:none;fill-rule:nonzero;fill:rgb(31.372549%,31.372549%,43.921569%);fill-opacity:1;" d="M 28 26.25 L 4 26.25 C 2.621094 26.25 1.5 25.128906 1.5 23.75 L 1.5 7.5 C 1.5 6.121094 2.621094 5 4 5 L 28 5 C 29.378906 5 30.5 6.121094 30.5 7.5 L 30.5 23.75 C 30.5 25.128906 29.378906 26.25 28 26.25 Z M 4 6 C 3.171875 6 2.5 6.671875 2.5 7.5 L 2.5 23.75 C 2.5 24.578125 3.171875 25.25 4 25.25 L 28 25.25 C 28.828125 25.25 29.5 24.578125 29.5 23.75 L 29.5 7.5 C 29.5 6.671875 28.828125 6 28 6 Z M 4 6 "/>
<path style=" stroke:none;fill-rule:nonzero;fill:rgb(31.372549%,31.372549%,43.921569%);fill-opacity:1;" d="M 16 16.261719 C 15.699219 16.261719 15.394531 16.167969 15.136719 15.984375 L 2 8.433594 C 1.761719 8.296875 1.679688 7.992188 1.816406 7.75 C 1.953125 7.511719 2.261719 7.429688 2.5 7.566406 L 15.703125 15.160156 C 15.882812 15.292969 16.117188 15.292969 16.296875 15.160156 L 16.34375 15.128906 L 29.5 7.566406 C 29.742188 7.429688 30.046875 7.511719 30.183594 7.75 C 30.320312 7.992188 30.238281 8.296875 30 8.433594 L 16.863281 15.984375 C 16.605469 16.167969 16.300781 16.261719 16 16.261719 Z M 16 16.261719 "/>
</g>
</svg>
