<?xml version="1.0" encoding="UTF-8"?>
<svg xmlns="http://www.w3.org/2000/svg" xmlns:xlink="http://www.w3.org/1999/xlink" width="32px" height="32px" viewBox="0 0 32 32" version="1.1">
<g id="surface1">
<path style=" stroke:none;fill-rule:nonzero;fill:rgb(0%,45.490196%,74.117647%);fill-opacity:1;" d="M 13.144531 16.953125 C 13.144531 16.953125 12.324219 17.433594 13.730469 17.59375 C 15.433594 17.789062 16.304688 17.761719 18.183594 17.40625 C 18.183594 17.40625 18.675781 17.714844 19.367188 17.984375 C 15.15625 19.785156 9.839844 17.878906 13.144531 16.953125 Z M 12.628906 14.601562 C 12.628906 14.601562 11.710938 15.28125 13.117188 15.429688 C 14.9375 15.617188 16.375 15.632812 18.863281 15.152344 C 18.863281 15.152344 19.203125 15.5 19.746094 15.691406 C 14.65625 17.179688 8.992188 15.808594 12.628906 14.601562 Z M 12.628906 14.601562 "/>
<path style=" stroke:none;fill-rule:nonzero;fill:rgb(91.764706%,17.647059%,18.039216%);fill-opacity:1;" d="M 16.964844 10.609375 C 18.003906 11.800781 16.695312 12.875 16.695312 12.875 C 16.695312 12.875 19.328125 11.515625 18.117188 9.8125 C 16.988281 8.226562 16.121094 7.4375 20.8125 4.71875 C 20.8125 4.71875 13.453125 6.558594 16.964844 10.609375 Z M 16.964844 10.609375 "/>
<path style=" stroke:none;fill-rule:nonzero;fill:rgb(0%,45.490196%,74.117647%);fill-opacity:1;" d="M 22.53125 18.695312 C 22.53125 18.695312 23.140625 19.195312 21.863281 19.585938 C 19.433594 20.320312 11.753906 20.542969 9.617188 19.613281 C 8.851562 19.28125 10.289062 18.816406 10.742188 18.71875 C 11.214844 18.617188 11.484375 18.636719 11.484375 18.636719 C 10.632812 18.035156 5.96875 19.816406 9.117188 20.328125 C 17.699219 21.71875 24.757812 19.699219 22.53125 18.695312 Z M 13.539062 12.160156 C 13.539062 12.160156 9.632812 13.089844 12.15625 13.425781 C 13.222656 13.570312 15.347656 13.539062 17.324219 13.371094 C 18.941406 13.234375 20.566406 12.945312 20.566406 12.945312 C 20.566406 12.945312 19.996094 13.191406 19.582031 13.472656 C 15.617188 14.515625 7.949219 14.027344 10.15625 12.960938 C 12.023438 12.058594 13.539062 12.160156 13.539062 12.160156 Z M 20.550781 16.078125 C 24.582031 13.984375 22.71875 11.96875 21.417969 12.242188 C 21.097656 12.308594 20.957031 12.363281 20.957031 12.363281 C 20.957031 12.363281 21.074219 12.179688 21.300781 12.097656 C 23.875 11.195312 25.855469 14.769531 20.46875 16.183594 C 20.46875 16.183594 20.53125 16.128906 20.550781 16.078125 Z M 20.550781 16.078125 "/>
<path style=" stroke:none;fill-rule:nonzero;fill:rgb(91.764706%,17.647059%,18.039216%);fill-opacity:1;" d="M 18.117188 0.328125 C 18.117188 0.328125 20.351562 2.5625 16 6 C 12.507812 8.753906 15.203125 10.328125 15.996094 12.125 C 13.960938 10.285156 12.464844 8.667969 13.46875 7.160156 C 14.941406 4.949219 19.019531 3.878906 18.117188 0.328125 Z M 18.117188 0.328125 "/>
<path style=" stroke:none;fill-rule:nonzero;fill:rgb(0%,45.490196%,74.117647%);fill-opacity:1;" d="M 13.9375 21.757812 C 17.808594 22.007812 23.753906 21.621094 23.894531 19.789062 C 23.894531 19.789062 23.625 20.484375 20.695312 21.035156 C 17.390625 21.65625 13.316406 21.585938 10.898438 21.1875 C 10.898438 21.1875 11.394531 21.597656 13.9375 21.757812 Z M 13.9375 21.757812 "/>
<path style=" stroke:none;fill-rule:nonzero;fill:rgb(91.764706%,17.647059%,18.039216%);fill-opacity:1;" d="M 23.714844 25.046875 L 23.597656 25.046875 L 23.597656 24.980469 L 23.914062 24.980469 L 23.914062 25.046875 L 23.796875 25.046875 L 23.796875 25.375 L 23.714844 25.375 Z M 24.351562 25.0625 L 24.347656 25.0625 L 24.230469 25.375 L 24.179688 25.375 L 24.0625 25.0625 L 24.058594 25.0625 L 24.058594 25.375 L 23.980469 25.375 L 23.980469 24.980469 L 24.097656 24.980469 L 24.203125 25.257812 L 24.3125 24.980469 L 24.425781 24.980469 L 24.425781 25.375 L 24.351562 25.375 Z M 13.304688 28.757812 C 12.9375 29.074219 12.550781 29.253906 12.203125 29.253906 C 11.710938 29.253906 11.445312 28.957031 11.445312 28.484375 C 11.445312 27.96875 11.730469 27.59375 12.878906 27.59375 L 13.300781 27.59375 L 13.300781 28.757812 Z M 14.308594 29.894531 L 14.308594 26.378906 C 14.308594 25.476562 13.796875 24.882812 12.5625 24.882812 C 11.839844 24.882812 11.207031 25.0625 10.691406 25.289062 L 10.839844 25.914062 C 11.246094 25.765625 11.769531 25.625 12.285156 25.625 C 12.996094 25.625 13.300781 25.914062 13.300781 26.507812 L 13.300781 26.949219 L 12.945312 26.949219 C 11.214844 26.949219 10.433594 27.621094 10.433594 28.632812 C 10.433594 29.5 10.949219 29.996094 11.917969 29.996094 C 12.542969 29.996094 13.007812 29.738281 13.441406 29.363281 L 13.519531 29.898438 L 14.308594 29.898438 Z M 17.671875 29.894531 L 16.417969 29.894531 L 14.902344 24.972656 L 16 24.972656 L 16.941406 28 L 17.148438 28.90625 C 17.625 27.59375 17.960938 26.257812 18.128906 24.972656 L 19.195312 24.972656 C 18.910156 26.59375 18.394531 28.375 17.671875 29.894531 Z M 22.496094 28.757812 C 22.128906 29.074219 21.742188 29.253906 21.398438 29.253906 C 20.902344 29.253906 20.636719 28.957031 20.636719 28.484375 C 20.636719 27.96875 20.921875 27.59375 22.070312 27.59375 L 22.496094 27.59375 Z M 23.503906 29.894531 L 23.503906 26.378906 C 23.503906 25.476562 22.988281 24.882812 21.753906 24.882812 C 21.03125 24.882812 20.398438 25.0625 19.886719 25.289062 L 20.035156 25.914062 C 20.4375 25.765625 20.964844 25.625 21.476562 25.625 C 22.1875 25.625 22.496094 25.914062 22.496094 26.507812 L 22.496094 26.949219 L 22.140625 26.949219 C 20.410156 26.949219 19.628906 27.621094 19.628906 28.632812 C 19.628906 29.5 20.140625 29.996094 21.109375 29.996094 C 21.734375 29.996094 22.199219 29.738281 22.632812 29.363281 L 22.714844 29.898438 L 23.503906 29.898438 Z M 9.332031 30.734375 C 9.042969 31.152344 8.578125 31.484375 8.070312 31.671875 L 7.574219 31.085938 C 7.960938 30.886719 8.292969 30.566406 8.445312 30.269531 C 8.578125 30.003906 8.632812 29.660156 8.632812 28.84375 L 8.632812 23.222656 L 9.707031 23.222656 L 9.707031 28.765625 C 9.707031 29.859375 9.617188 30.300781 9.332031 30.734375 Z M 9.332031 30.734375 "/>
</g>
</svg>
