<?xml version="1.0" encoding="UTF-8"?>
<svg xmlns="http://www.w3.org/2000/svg" xmlns:xlink="http://www.w3.org/1999/xlink" width="32px" height="32px" viewBox="0 0 32 31" version="1.1">
<defs>
<linearGradient id="linear0" gradientUnits="userSpaceOnUse" x1="0.12959" y1="0.12039" x2="0.79639" y2="0.78201" gradientTransform="matrix(23.65625,0,0,23.074219,0.0195312,0.0078125)">
<stop offset="0" style="stop-color:rgb(21.960784%,49.411765%,72.156863%);stop-opacity:1;"/>
<stop offset="1" style="stop-color:rgb(21.176471%,41.176471%,58.039216%);stop-opacity:1;"/>
</linearGradient>
<linearGradient id="linear1" gradientUnits="userSpaceOnUse" x1="0.19128" y1="0.20579" x2="0.90742" y2="0.88429" gradientTransform="matrix(23.660156,0,0,23.074219,8.277344,7.820313)">
<stop offset="0" style="stop-color:rgb(100%,87.843137%,32.156863%);stop-opacity:1;"/>
<stop offset="1" style="stop-color:rgb(100%,76.470588%,19.215686%);stop-opacity:1;"/>
</linearGradient>
</defs>
<g id="surface1">
<path style=" stroke:none;fill-rule:nonzero;fill:url(#linear0);" d="M 15.863281 0.0078125 C 7.761719 0.0078125 8.265625 3.425781 8.265625 3.425781 L 8.273438 6.96875 L 16.007812 6.96875 L 16.007812 8.03125 L 5.203125 8.03125 C 5.203125 8.03125 0.0195312 7.457031 0.0195312 15.410156 C 0.0195312 23.363281 4.542969 23.082031 4.542969 23.082031 L 7.246094 23.082031 L 7.246094 19.390625 C 7.246094 19.390625 7.097656 14.988281 11.699219 14.988281 L 19.367188 14.988281 C 19.367188 14.988281 23.675781 15.058594 23.675781 10.9375 L 23.675781 4.128906 C 23.675781 4.128906 24.332031 0.0078125 15.863281 0.0078125 Z M 11.597656 2.390625 C 11.96875 2.390625 12.320312 2.53125 12.582031 2.785156 C 12.84375 3.039062 12.992188 3.382812 12.992188 3.742188 C 12.992188 4.101562 12.84375 4.445312 12.582031 4.699219 C 12.320312 4.953125 11.96875 5.097656 11.597656 5.097656 C 11.230469 5.097656 10.875 4.953125 10.613281 4.699219 C 10.355469 4.445312 10.207031 4.101562 10.207031 3.742188 C 10.207031 3.382812 10.355469 3.039062 10.613281 2.785156 C 10.875 2.53125 11.230469 2.390625 11.597656 2.390625 Z M 11.597656 2.390625 "/>
<path style=" stroke:none;fill-rule:nonzero;fill:url(#linear1);" d="M 16.09375 30.894531 C 24.195312 30.894531 23.691406 27.476562 23.691406 27.476562 L 23.679688 23.933594 L 15.949219 23.933594 L 15.949219 22.871094 L 26.753906 22.871094 C 26.753906 22.871094 31.9375 23.445312 31.9375 15.492188 C 31.9375 7.539062 27.410156 7.820312 27.410156 7.820312 L 24.710938 7.820312 L 24.710938 11.511719 C 24.710938 11.511719 24.855469 15.914062 20.257812 15.914062 L 12.589844 15.914062 C 12.589844 15.914062 8.277344 15.84375 8.277344 19.964844 L 8.277344 26.773438 C 8.277344 26.773438 7.625 30.894531 16.09375 30.894531 Z M 20.355469 28.511719 C 19.988281 28.511719 19.632812 28.371094 19.371094 28.117188 C 19.113281 27.863281 18.964844 27.519531 18.964844 27.160156 C 18.964844 26.800781 19.113281 26.457031 19.371094 26.203125 C 19.632812 25.949219 19.988281 25.804688 20.355469 25.804688 C 20.726562 25.804688 21.078125 25.949219 21.339844 26.203125 C 21.601562 26.457031 21.75 26.800781 21.75 27.160156 C 21.75 27.519531 21.601562 27.863281 21.339844 28.117188 C 21.078125 28.371094 20.726562 28.511719 20.355469 28.511719 Z M 20.355469 28.511719 "/>
</g>
</svg>
