<?xml version="1.0" encoding="UTF-8"?>
<svg xmlns="http://www.w3.org/2000/svg" xmlns:xlink="http://www.w3.org/1999/xlink" width="32px" height="32px" viewBox="0 0 32 32" version="1.1">
<g id="surface1">
<path style=" stroke:none;fill-rule:nonzero;fill:rgb(0%,0%,0%);fill-opacity:1;" d="M 10.28125 1.511719 C 9.097656 1.511719 8.140625 2.210938 8.140625 3.070312 L 8.140625 22.65625 C 8.140625 23.519531 9.097656 24.214844 10.28125 24.214844 L 21.558594 24.214844 C 22.742188 24.214844 23.699219 23.519531 23.699219 22.65625 L 23.699219 3.070312 C 23.699219 2.210938 22.742188 1.511719 21.558594 1.511719 Z M 20.46875 2.105469 C 20.691406 2.105469 20.871094 2.246094 20.871094 2.425781 C 20.871094 2.601562 20.691406 2.742188 20.46875 2.742188 C 20.25 2.742188 20.070312 2.601562 20.070312 2.425781 C 20.070312 2.246094 20.25 2.105469 20.46875 2.105469 Z M 14.570312 2.273438 L 17.269531 2.273438 C 17.332031 2.273438 17.390625 2.320312 17.390625 2.375 C 17.390625 2.433594 17.332031 2.480469 17.269531 2.480469 L 14.570312 2.480469 C 14.507812 2.480469 14.449219 2.433594 14.449219 2.375 C 14.449219 2.320312 14.507812 2.273438 14.570312 2.273438 Z M 10.289062 2.382812 C 10.363281 2.382812 10.421875 2.429688 10.421875 2.488281 C 10.421875 2.546875 10.363281 2.601562 10.289062 2.601562 C 10.21875 2.601562 10.160156 2.546875 10.160156 2.488281 C 10.160156 2.429688 10.21875 2.382812 10.289062 2.382812 Z M 10.75 2.390625 C 10.820312 2.390625 10.878906 2.433594 10.878906 2.488281 C 10.878906 2.542969 10.820312 2.59375 10.75 2.59375 C 10.679688 2.59375 10.628906 2.542969 10.628906 2.488281 C 10.628906 2.433594 10.679688 2.390625 10.75 2.390625 Z M 8.851562 3.441406 L 22.988281 3.441406 L 22.988281 21.816406 L 8.851562 21.816406 Z M 14.210938 22.609375 L 17.628906 22.609375 C 17.867188 22.609375 18.058594 22.726562 18.058594 22.878906 L 18.058594 23.191406 C 18.058594 23.34375 17.867188 23.464844 17.628906 23.464844 L 14.210938 23.464844 C 13.972656 23.464844 13.78125 23.34375 13.78125 23.191406 L 13.78125 22.878906 C 13.78125 22.726562 13.972656 22.609375 14.210938 22.609375 Z M 14.210938 22.609375 "/>
</g>
</svg>
