<?xml version="1.0" encoding="UTF-8"?>
<svg xmlns="http://www.w3.org/2000/svg" xmlns:xlink="http://www.w3.org/1999/xlink" width="500px" height="500px" viewBox="0 0 500 500" version="1.1">
<g id="surface1">
<path style=" stroke:none;fill-rule:nonzero;fill:rgb(0%,0%,0%);fill-opacity:1;" d="M 456.59375 234.664062 L 461.042969 248.3125 L 451.535156 248.3125 L 456.902344 234.664062 Z M 436.273438 263.265625 L 447.085938 263.265625 L 449.617188 256.289062 L 463.265625 256.289062 L 465.796875 263.265625 L 476.609375 263.265625 L 461.65625 223.542969 L 451.148438 223.542969 Z M 423.542969 263.265625 L 434.355469 263.265625 L 434.355469 223.542969 L 423.542969 223.542969 Z M 388.574219 249.617188 C 388.574219 259.125 396.164062 263.265625 405.0625 263.265625 C 413.34375 263.265625 421.550781 260.121094 421.550781 250.535156 C 421.550781 243.558594 415.796875 241.027344 410.429688 239.417969 C 404.371094 237.808594 399.003906 237.808594 399.003906 234.664062 C 399.003906 232.132812 402.148438 231.519531 403.757812 231.519531 C 406.902344 231.519531 410.121094 232.4375 410.121094 235.964844 L 419.632812 235.964844 C 419.632812 227.378906 412.039062 223.234375 404.371094 223.234375 C 397.085938 223.234375 388.496094 226.378906 388.496094 235.277344 C 388.496094 242.253906 394.863281 244.785156 399.921875 246.089844 C 405.675781 247.699219 411.042969 248.3125 411.042969 251.839844 C 411.042969 254.984375 407.898438 255.675781 404.679688 255.675781 C 400.535156 255.675781 397.699219 254.0625 397.699219 249.308594 L 388.191406 249.308594 Z M 370.476562 234.664062 L 374.921875 248.3125 L 365.414062 248.3125 L 370.78125 234.664062 Z M 350.535156 263.265625 L 361.042969 263.265625 L 363.574219 256.289062 L 377.53125 256.289062 L 380.0625 263.265625 L 390.875 263.265625 L 375.921875 223.542969 L 365.105469 223.542969 Z M 315.566406 263.265625 L 319.707031 263.265625 L 319.707031 229.601562 L 342.867188 263.265625 L 347.316406 263.265625 L 347.316406 223.542969 L 343.480469 223.542969 L 343.480469 256.902344 L 320.015625 223.925781 L 315.566406 223.925781 Z M 307.285156 263.265625 L 311.121094 263.265625 L 311.121094 223.542969 L 307.285156 223.542969 Z M 267.945312 263.265625 L 278.375 263.265625 L 278.375 247.394531 L 292.023438 247.394531 L 292.023438 263.265625 L 302.222656 263.265625 L 302.222656 223.542969 L 292.023438 223.542969 L 292.023438 237.808594 L 278.375 237.808594 L 278.375 223.925781 L 267.867188 223.925781 L 267.867188 263.265625 Z M 264.722656 237.882812 C 264.722656 228.988281 256.136719 223.621094 247.929688 223.621094 C 236.503906 223.621094 228.910156 232.515625 228.910156 243.636719 C 228.910156 254.449219 236.503906 263.34375 247.929688 263.34375 C 257.4375 263.34375 264.722656 257.59375 265.414062 247.46875 L 255.90625 247.46875 C 255.292969 252.222656 252.761719 254.753906 247.929688 254.753906 C 241.5625 254.753906 239.035156 249.003906 239.035156 243.636719 C 239.035156 237.882812 241.5625 232.207031 247.929688 232.207031 C 252.070312 232.207031 255.214844 234.125 255.519531 237.960938 L 265.03125 237.960938 L 264.722656 237.960938 Z M 195.859375 263.265625 L 228.222656 263.265625 L 228.222656 254.371094 L 205.980469 254.371094 L 205.980469 246.777344 L 225.691406 246.777344 L 225.691406 238.804688 L 206.671875 238.804688 L 206.671875 231.519531 L 227.605469 231.519531 L 227.605469 223.925781 L 195.859375 223.925781 C 195.859375 223.925781 195.859375 263.265625 195.859375 263.265625 Z M 192.636719 223.542969 L 159.277344 223.542969 L 159.277344 232.4375 L 171.011719 232.4375 L 171.011719 263.265625 L 181.519531 263.265625 L 181.519531 232.4375 L 193.25 232.4375 L 193.25 223.542969 Z M 192.636719 223.542969 "/>
<path style=" stroke:none;fill-rule:nonzero;fill:rgb(88.235294%,0%,0%);fill-opacity:1;" d="M 96.703125 238.496094 C 97.621094 239.109375 98.621094 238.496094 98.3125 237.191406 L 93.25 228.296875 L 91.335938 228.296875 L 59.585938 284.507812 C 58.28125 285.8125 56.441406 285.8125 55.75 284.507812 L 44.9375 266.410156 L 44.324219 263.878906 L 44.324219 248.007812 C 44.324219 246.394531 43.710938 245.476562 42.714844 244.863281 L 17.332031 222.621094 C 15.722656 221.703125 16.410156 219.480469 18.636719 219.480469 L 64.035156 219.480469 L 75.152344 225.84375 C 75.765625 226.457031 75.765625 227.148438 75.152344 227.453125 L 70.707031 235.734375 C 70.707031 236.351562 70.09375 236.65625 69.785156 236.351562 L 60.890625 231.59375 L 58.972656 230.980469 L 47.164062 230.980469 C 46.242188 230.980469 45.859375 232.285156 46.550781 232.898438 L 54.523438 239.265625 C 55.445312 240.183594 55.828125 241.488281 55.828125 242.40625 L 55.828125 263.34375 C 55.828125 264.648438 57.4375 264.953125 58.050781 263.957031 L 91.105469 206.824219 C 91.71875 205.90625 94.25 205.90625 94.25 206.824219 L 128.222656 265.566406 C 129.832031 267.484375 127.605469 269.402344 125.691406 268.710938 L 86.273438 245.550781 C 85.660156 245.550781 85.351562 244.632812 85.660156 244.25 L 90.414062 236.273438 C 90.414062 235.660156 91.335938 235.660156 92.023438 235.660156 L 96.777344 238.804688 L 96.777344 238.496094 Z M 96.703125 238.496094 "/>
</g>
</svg>
